<svg version="1.2" xmlns="http://www.w3.org/2000/svg" viewBox="0 0 2048 1536" width="2048" height="1536">
	<style>
		.s0 { fill: #ff0000 } 
		.s1 { fill: #ff0055 } 
		.s2 { fill: #55ff00 } 
		.s3 { fill: #7f7f7f } 
		.s4 { fill: #ffad55 } 
		.s5 { fill: #aa00ff } 
		.s6 { fill: #00aaff } 
		.s7 { fill: #ffff00 } 
		.s8 { fill: #c1c1c1 } 
		.s9 { fill: #e86d02 } 
		.s10 { fill: #f0f0e8 } 
		.s11 { fill: #ff8800 } 
		.s12 { fill: #ff9000 } 
	</style>
	<g id="Background">
		<path id="Path 0" class="s0" d="m1379.31 1031.83c-1.55 1.28-10.46 7.42-19.81 13.63-9.35 6.21-21.05 13.58-26 16.37-4.95 2.8-13.5 6.88-19 9.08-5.5 2.2-14.5 5.24-20 6.75-8.2 2.26-12.07 2.75-21.5 2.76-6.82 0.01-13.33-0.54-16-1.34-4.2-1.26-4.83-1.2-9.45 1.03-2.72 1.32-5.77 3.52-6.77 4.89-1 1.38-2.48 4.97-3.29 8-0.8 3.03-1.47 7.86-1.48 10.75-0.01 4.17 0.35 5.34 1.74 5.7 0.96 0.25 4.9 0.73 8.75 1.08 4.09 0.37 13.03 0 21.5-0.9 7.97-0.84 18.1-2.26 22.5-3.16 4.4-0.9 12.72-2.92 18.5-4.48 7.87-2.14 14.63-5.02 27-11.51 9.08-4.76 26.63-14.72 39-22.13 12.38-7.41 24.64-15.02 27.25-16.91 2.61-1.89 4.64-3.68 4.5-3.98-0.14-0.3-6.32 1.53-13.75 4.07-7.42 2.53-22.28 8.81-33 13.94-10.72 5.14-21.75 10.08-24.5 10.99-2.75 0.9-6.12 1.51-7.5 1.34-2.18-0.26-1.42-1.08 5.87-6.3 4.6-3.3 13.82-9.96 20.5-14.8 6.67-4.84 16.75-12.72 22.39-17.5 5.64-4.79 10.14-8.99 10-9.34-0.14-0.36-1.24-0.58-2.45-0.5-1.21 0.08-3.46 1.19-5 2.47z"/>
		<path id="Path 1" class="s1" d="m1487.5 1138.59c-6.05 3.61-16.17 9.16-22.5 12.35-6.33 3.19-25.45 11-42.5 17.36-17.05 6.36-34.15 12.2-38 12.98-3.85 0.78-7.56 1.27-8.25 1.07-0.69-0.19-1.26-0.69-1.27-1.1-0.02-0.41 4.05-4.8 9.04-9.75 4.98-4.95 9.03-9.22 9-9.5-0.04-0.28 1.08-1.62 2.48-3 1.4-1.37 2.54-2.84 2.53-3.25-0.02-0.41-1.27-0.48-2.78-0.16-1.51 0.33-3.54 0.78-4.5 1-0.96 0.23-3.21 1.48-5 2.79-1.79 1.31-12.25 7.67-23.25 14.14-11 6.47-22.82 13.16-26.26 14.87-3.45 1.71-6.27 3.56-6.29 4.11-0.01 0.55 5.96 3.14 13.27 5.75l13.28 4.74c11.76-2.98 17.81-5.52 21.5-7.76 3.58-2.18 11.45-6.44 17.5-9.47 6.05-3.04 21.13-9.89 33.5-15.23 12.38-5.34 28.8-12.95 36.5-16.91 7.7-3.96 18.39-9.99 23.75-13.41 5.36-3.42 9.75-6.66 9.75-7.21 0-0.55-0.11-0.99-0.25-0.98-0.14 0.01-5.2 2.97-11.25 6.57z"/>
		<path id="Path 2" class="s2" d="m1425 1101.93c-1.92 1.02-12.5 5.12-23.5 9.11-11 3.99-29.67 10.59-41.5 14.66-11.83 4.08-26.67 8.99-33 10.91-6.4 1.94-13.04 3.36-14.97 3.19-3.24-0.28-2.44-0.9 12.71-9.8 8.89-5.22 16.19-9.84 16.21-10.25 0.03-0.41-1.19-0.35-2.7 0.14-1.51 0.49-5 1.89-7.75 3.11-2.75 1.22-8.83 3.53-13.5 5.13-4.67 1.59-12.78 4.07-18 5.49-5.22 1.43-12.2 2.75-15.5 2.94-3.3 0.19-10.05 1.02-15 1.83-4.95 0.82-10.91 1.74-13.25 2.05-2.34 0.31-4.25 0.78-4.25 1.06 0 0.28 1.17 2.41 2.61 4.75 1.44 2.34 5.37 7.09 8.75 10.57 3.38 3.47 8.17 7.85 10.64 9.72l4.5 3.4c17.83-3.13 28.4-5.35 35-6.94 6.6-1.6 21.9-6.23 34-10.3 12.1-4.07 25.15-8.62 29-10.12 4.47-1.74 7.67-3.69 8.86-5.4 1.03-1.47 8-6.82 15.5-11.87 7.5-5.06 17.43-12.26 22.05-16 4.63-3.75 8.46-7.37 8.52-8.06 0.06-0.69-0.35-1.23-0.91-1.21-0.56 0.03-2.6 0.88-4.52 1.89z"/>
		<path id="Path 3" class="s3" d="m1667.88 993.32c-1.44 1.75-3.8 5.54-5.25 8.43-1.44 2.89-3.08 5.47-3.63 5.75-0.55 0.27-1.28-0.29-1.63-1.25-0.54-1.5-0.75-1.54-1.48-0.25-0.47 0.82-0.87 1.84-0.87 2.25-0.01 0.41 1.22 0.76 2.73 0.76 1.8 0.01 3.96 1.23 6.25 3.52 2.95 2.94 4.53 3.64 10 4.41 5.77 0.81 6.78 0.69 9-1.05 1.37-1.08 2.16-1.94 1.75-1.92-0.41 0.01 0.6-1.55 2.25-3.47 1.87-2.18 2.72-4.01 2.25-4.84-0.41-0.74-4.46-4.56-9-8.5-4.54-3.94-8.59-7.13-9-7.09-0.41 0.04-1.93 1.5-3.37 3.25z"/>
		<path id="Path 4" fill-rule="evenodd" class="s4" d="m1621.45 433.07c4.98 0.04 11.08 0.44 13.55 0.88 2.47 0.44 4.16 0.86 3.75 0.92-0.41 0.07 2.15 8.57 5.69 18.88 3.54 10.31 7.33 22.8 8.42 27.75 1.09 4.95 3.64 14.4 5.66 21 2.03 6.6 5.23 17.4 7.13 24 1.89 6.6 5.22 18.86 7.39 27.25 2.18 8.39 5.11 21.44 6.52 29 2.37 12.76 2.54 15.66 2.39 40.25-0.1 15.85 0.27 28.91 0.93 32.5 0.61 3.3 1.11 10.27 1.11 15.5-0.01 5.23-0.5 13.55-1.1 18.5-0.6 4.95-1.25 10.8-1.46 13-0.25 2.76-1.85 6.13-5.15 10.86-2.63 3.78-7.71 10.51-11.28 14.96-3.58 4.46-10.57 12.62-15.53 18.14-6.55 7.28-10.54 10.8-14.5 12.8-4.18 2.11-6.88 2.76-11.47 2.75-4.55-0.01-7.3-0.68-11.38-2.76-3.12-1.6-8.05-5.58-11.75-9.5-4.35-4.61-7.62-9.37-10.31-15-2.17-4.54-4.88-11.62-6.01-15.75-1.14-4.12-2.96-13.12-4.06-20-1.1-6.87-2.46-15.42-3.03-19-0.57-3.58-1.5-9.2-2.07-12.5-0.56-3.3-1.9-9.6-2.96-14-1.07-4.4-4.75-16.69-8.18-27.31-4.32-13.33-5.9-19.52-5.12-20 0.79-0.49 0.89-3.34 0.35-9.69-0.42-4.95-1.75-14.4-2.95-21-1.2-6.6-3.92-17.85-6.05-25-2.14-7.15-4.61-15.02-5.49-17.5-0.89-2.48-2.66-8.77-3.94-14-1.28-5.23-2.65-13.55-3.04-18.5-0.44-5.54-0.29-11.31 0.4-15 0.61-3.3 2.36-8.02 3.89-10.5 1.75-2.84 5.71-6.61 10.74-10.23 4.38-3.15 13.36-8.45 19.96-11.77 6.6-3.32 17.8-8.53 24.88-11.57 7.09-3.04 13.37-6.18 13.96-6.98 0.8-1.09 3.3-1.43 10.11-1.38zm-798 12.93c28.35-0.01 31.35 0.15 34.55 1.85 1.92 1.02 8 3.25 13.5 4.94 5.5 1.7 15.62 5.62 22.5 8.72 6.87 3.1 16.77 7.93 22 10.73 5.22 2.81 11.97 6.77 15 8.8 3.02 2.03 7.93 5.9 10.91 8.58 3.03 2.74 8.88 10.14 13.34 16.88 4.37 6.6 9.66 15.6 11.76 20 2.1 4.4 5.59 12.73 7.76 18.5 2.17 5.77 5.11 14.55 6.54 19.5 1.43 4.95 3.31 12.38 4.18 16.5 0.87 4.13 1.97 12.23 2.43 18 0.48 5.86 0.46 17.8-0.03 27-0.48 9.08-1.8 22.13-2.93 29-1.12 6.88-3.33 16.33-4.9 21-1.57 4.67-4.78 12.55-7.15 17.5-2.37 4.95-7.02 12.6-10.34 17-3.32 4.4-10.31 12.44-15.55 17.87-7.49 7.76-12.83 12.06-25.02 20.15-8.53 5.66-21.58 13.5-29 17.43-7.42 3.92-21.83 10.91-32 15.53-10.17 4.62-21.2 9.08-24.5 9.9-3.3 0.83-10.05 2.2-15 3.05-4.95 0.84-16.2 2.22-25 3.06-10.65 1.01-27.11 1.52-49.25 1.51-21.17 0-33.43 0.36-33.75 1-0.28 0.55-0.61 3.85-0.75 7.33-0.23 5.74 0.08 6.86 3.4 12.25 2 3.25 4.72 8.62 6.04 11.92 1.32 3.3 3.46 7.58 4.76 9.5 1.3 1.92 3.98 5.22 5.96 7.32 1.97 2.11 6.29 5.35 9.59 7.22 3.3 1.86 9.37 4.54 13.5 5.96 4.12 1.41 13.35 3.32 20.5 4.24 11.27 1.45 14.59 1.51 25 0.42 6.6-0.68 19.2-1.88 28-2.65 8.8-0.77 19.15-2.08 23-2.9 3.85-0.82 11.5-2.47 17-3.65 5.5-1.18 14.95-3.73 21-5.65 6.87-2.19 14.01-3.72 19-4.08 6.93-0.5 8.47-0.3 11.5 1.49 1.92 1.13 5.04 3.8 6.93 5.92 1.89 2.12 4.7 6.67 6.25 10.11 1.55 3.44 3.76 9.96 4.91 14.5 1.41 5.54 2.39 13.99 3.01 25.75 0.51 9.63 1.21 24.92 2.22 50.5l-3.91 5.99c-2.15 3.29-6.68 8.92-10.06 12.5-3.39 3.58-8.56 7.97-11.5 9.75-2.94 1.79-8.05 4.35-11.35 5.69-3.3 1.34-9.83 3.55-14.5 4.91-4.67 1.36-13.45 3.22-19.5 4.12-6.05 0.91-23.6 2.28-39 3.06-21.89 1.11-30.73 1.97-40.5 3.97-6.88 1.4-16.1 3.63-20.5 4.95-4.4 1.32-8.67 3.14-9.5 4.04-1.16 1.27-2.53 1.5-6 1.02-2.48-0.34-10.58-1.49-18-2.55-7.42-1.06-19.58-2.61-27-3.44-7.42-0.83-19.8-3.05-27.5-4.94-7.7-1.88-18.05-4.9-23-6.71-4.95-1.8-10.35-4.46-12-5.89-1.65-1.44-7.95-5.22-14-8.4-6.05-3.18-16.17-9.18-22.5-13.33-9.79-6.43-14.77-10.83-33.57-29.65-12.13-12.15-26.08-26.94-31-32.88-4.91-5.93-12.45-16.5-16.76-23.5-4.3-6.99-10.29-17.88-13.3-24.21-3.01-6.33-7.04-15.77-8.95-21-1.92-5.23-4.35-11.3-5.42-13.5-1.06-2.2-3.33-10.75-5.05-19-2.23-10.73-3.28-18.98-3.68-29-0.36-8.99-0.06-18.62 0.84-26.89 0.91-8.44 1.82-13.01 2.64-13.25 0.69-0.2 1.26-0.92 1.27-1.61 0.01-0.69 2.01-4.62 4.43-8.75 2.42-4.12 5.84-11.1 7.59-15.5 1.75-4.4 4.68-12.73 6.51-18.5 1.83-5.77 6.42-16.58 10.2-24 3.78-7.42 8.74-16.2 11.02-19.5 2.28-3.3 7.6-10.73 11.83-16.5 4.23-5.77 11.57-15 16.32-20.5 4.75-5.5 10.71-12.7 13.24-16 2.53-3.3 12.64-14.35 22.47-24.56 9.83-10.21 22.59-23.05 28.37-28.53 5.77-5.48 13.65-12.68 17.5-15.99 3.85-3.32 11.27-9.19 16.5-13.04 5.22-3.85 16.25-11.07 24.5-16.05 8.25-4.97 24.45-13.91 36-19.86 11.55-5.96 24.15-12.37 28-14.26 3.85-1.89 13.29-6.16 20.97-9.49 7.69-3.33 14.42-6.65 14.96-7.39 0.78-1.06 7.32-1.33 32.02-1.33zm-80.45 179.59c-4.67 1.46-10.98 3.74-14 5.08-3.03 1.34-8.88 4.42-13 6.85-4.13 2.42-10.65 6.91-14.5 9.98-3.85 3.06-9.59 8.59-12.75 12.29-3.16 3.69-7.72 10.54-10.13 15.21-2.4 4.67-5.09 10.75-5.96 13.5-0.88 2.75-2.02 8.6-2.55 13-0.75 6.38-0.66 8.56 0.47 10.75 0.83 1.6 2.57 3.01 4.17 3.37 1.51 0.34 3.99 0.34 5.5 0 1.51-0.34 4.66-1.81 7-3.27 2.34-1.46 6.5-3.43 9.25-4.38 2.75-0.94 9.27-2.44 14.5-3.32 5.22-0.89 14.67-2.09 21-2.67 6.33-0.58 20.05-1.47 30.5-1.97 14.78-0.71 21.22-1.48 29-3.45 5.5-1.39 13.83-4.41 18.5-6.71 5.97-2.94 10.31-5.99 14.59-10.27 4.43-4.43 6.71-7.71 8.38-12.08 1.61-4.22 2.32-8.23 2.37-13.5 0.05-5.73-0.45-8.62-2.14-12.25-1.21-2.61-3.89-6.48-5.95-8.59-2.06-2.11-6.23-4.82-9.25-6.02-3.03-1.2-7.98-2.87-11-3.71-3.74-1.04-11.6-1.66-24.5-1.93-10.45-0.22-21.7 0.02-25 0.53-3.3 0.51-9.83 2.11-14.5 3.56zm1121-160.46c4.67-0.07 12.55 0.54 17.5 1.34 4.95 0.81 11.47 2.32 14.5 3.37 3.51 1.21 5.5 2.46 5.5 3.46 0 1.1 2.06 2.07 7 3.3 3.85 0.95 8.8 2.55 11 3.54 2.2 1 5.8 1.83 8 1.84 2.2 0.01 7.15 0.92 11 2.02 3.85 1.1 7.34 2 7.75 2 0.41 0 0.66-1.46 0.55-3.25-0.11-1.79-0.67-3.9-1.25-4.7-0.58-0.8 1.54 0.32 4.71 2.5 4.88 3.35 5.68 4.33 5.3 6.45-0.24 1.38-0.72 7.45-1.05 13.5-0.34 6.05-1.06 15.73-1.61 21.5-0.55 5.77-1.88 16.13-2.96 23-1.08 6.88-3.35 17.45-5.05 23.5-2.21 7.91-4.93 14.38-9.66 23-3.62 6.6-10.25 18.3-14.73 26-4.48 7.7-12.45 20.75-17.69 29-5.25 8.25-12.13 19.5-15.29 25-3.15 5.5-10.56 17.65-16.46 27-5.89 9.35-12.98 20.83-15.76 25.5-2.77 4.67-6.05 10.52-7.28 13-1.23 2.48-4.39 8.33-7.02 13-2.62 4.67-8.73 15.7-13.56 24.5-4.84 8.8-10.57 18.92-12.74 22.5-2.16 3.58-7.59 11.61-12.07 17.85-4.47 6.24-10.2 14.11-12.72 17.5-2.52 3.38-9.75 13.35-16.07 22.15-6.31 8.8-13.92 19.38-16.92 23.5-2.99 4.13-7.24 9.77-9.43 12.55-2.2 2.78-6.91 8.81-10.49 13.39-3.58 4.59-10.24 13.11-14.82 18.95-4.58 5.83-10.65 13.49-13.5 17-2.85 3.52-9.41 11.39-14.57 17.5-5.17 6.11-12.82 15.46-17 20.78-6.86 8.72-7.83 9.58-9.86 8.75-1.24-0.51-4.54-2.83-7.34-5.17-2.81-2.34-13.27-11.28-23.25-19.88-9.99-8.6-21.99-19.85-26.68-25-4.68-5.15-10.35-11.62-12.59-14.37-2.24-2.75-5.61-7.33-10.89-15.36l5.51-5.82c3.03-3.2 11.13-12.29 18-20.19 6.87-7.9 13.76-16 15.31-18 1.55-2 5.79-8.58 9.42-14.63 3.62-6.05 14.48-22.92 24.12-37.5 13.67-20.66 17.5-27.16 17.39-29.5-0.1-1.93 0.84-4.25 2.62-6.5 1.52-1.92 4.74-6.42 7.14-10 2.41-3.58 6.48-11 9.05-16.5 2.57-5.5 7.72-16.3 11.44-24 3.71-7.7 9.22-20.52 12.23-28.5 3.45-9.13 5.68-16.72 6.01-20.5 0.3-3.3 1.55-8.02 2.79-10.5 1.24-2.48 3.89-9 5.89-14.5 2.01-5.5 5.41-14.73 7.58-20.5 2.16-5.77 6.85-17.7 10.43-26.5 3.59-8.8 8.52-22.3 10.97-30 2.45-7.7 5.64-18.27 7.1-23.5 1.45-5.23 5.77-16.48 9.6-25 3.83-8.52 8.85-18.43 11.17-22 2.31-3.57 7.81-10.11 12.22-14.53 5.87-5.89 10.14-9.13 16.01-12.15 4.4-2.26 11.37-5.29 15.5-6.73 4.12-1.43 10.65-2.99 14.5-3.47 3.85-0.48 10.83-0.92 15.5-0.99zm-435.5 13.87c0.28 0 1.96 0.74 3.75 1.64 1.79 0.89 5.64 3.26 8.57 5.25 2.92 1.98 5.1 4.06 4.83 4.61-0.26 0.55 0.43 4.38 1.55 8.5 1.7 6.28 2.01 10.35 1.93 25-0.08 13.43-0.81 22.85-3.17 40.5-1.68 12.65-3.46 27.27-3.96 32.5-0.49 5.23-1.37 14.9-1.97 21.5-0.59 6.6-2.16 17.17-3.5 23.5-1.33 6.33-4.44 19.83-6.91 30-2.47 10.17-7.88 28.85-12.01 41.5-4.14 12.65-8.68 28.4-10.11 35-1.42 6.6-4.36 18.75-6.53 27-2.79 10.56-3.96 17.07-3.97 22 0 3.85-0.49 12.17-1.09 18.5-0.59 6.33-2.62 17.58-4.5 25-1.88 7.42-4.8 16.42-6.49 20-1.69 3.58-5 9.2-7.37 12.5-2.36 3.3-6.26 7.82-8.67 10.04-2.41 2.22-6.85 5.86-9.88 8.1-3.03 2.24-8.76 5.71-12.75 7.71-3.99 2.01-15.91 6.55-26.5 10.1-10.59 3.54-25.78 8.69-33.75 11.44-7.97 2.75-20.01 6.15-26.75 7.56-6.74 1.4-13.6 2.55-15.25 2.55-1.65 0-6.04 1.38-9.75 3.07-3.71 1.69-10.8 5.35-15.75 8.14-4.95 2.8-11.81 6.82-15.25 8.94-3.44 2.12-6.81 3.85-7.5 3.84-0.69-0.01-3.5-1.08-6.25-2.38-2.75-1.3-6.63-4.11-8.62-6.24-1.99-2.13-4.77-5.89-6.17-8.37-1.39-2.48-3.3-6.98-4.22-10-1.27-4.13-1.89-11.85-2.52-31-0.46-14.02-1.31-29.1-1.9-33.5-0.6-4.4-1.56-10.7-2.16-14-0.59-3.3-3.12-12.08-5.62-19.5-2.5-7.42-9.83-24.75-16.28-38.5-6.45-13.75-13.48-28.04-15.62-31.77-2.14-3.72-8.39-13.09-23.89-34.89l-29-24.78c-15.95-13.63-32.04-28-35.75-31.92-3.71-3.93-8.27-9.5-10.12-12.39-1.86-2.89-5.28-9.75-7.62-15.25-2.82-6.64-4.76-13.19-5.77-19.5-0.83-5.23-1.51-14.45-1.5-20.5 0-6.05 0.52-13.14 1.13-15.75 0.62-2.61 2.01-7.11 3.09-10 1.09-2.89 4.14-8.85 6.8-13.25 2.65-4.4 8.46-12.73 12.9-18.5 4.44-5.77 8.81-11.06 9.71-11.75 0.9-0.69 1.97-1.17 2.38-1.07 0.41 0.1 4.12-1.43 8.25-3.41 4.12-1.97 9.97-4.58 13-5.79 3.03-1.22 8.2-2.99 11.5-3.94 5.44-1.57 7.69-1.62 24-0.54 16.96 1.12 18.35 1.36 24 4.26 3.3 1.69 8.06 5.25 10.58 7.91 2.52 2.65 6.12 6.83 8 9.27 1.88 2.45 7.02 8.07 11.42 12.5 4.4 4.43 12.57 14.14 18.14 21.56 5.58 7.42 11.7 15.52 13.61 18 1.9 2.48 9.94 13.27 17.87 24 7.92 10.73 18.23 24.84 22.89 31.37 4.67 6.54 9.95 13.17 11.74 14.75 1.79 1.59 3.92 2.88 4.75 2.88 0.83 0 1.5 0.45 1.5 1 0 0.55 0.45 1 1 1 0.55 0 0.99-0.79 0.97-1.75-0.03-1.58 0.16-1.55 1.94 0.25 1.97 2 1.98 2 2.51-1 0.3-1.65 1.01-6.15 1.58-10 0.57-3.85 2.38-11.39 4.02-16.75 2.04-6.69 3.37-9.58 4.23-9.2 0.82 0.36 3.92-4.83 9.09-15.25 4.31-8.69 10.27-19.96 13.25-25.05 4.22-7.22 5.86-11.28 7.44-18.5 1.12-5.09 2.76-11.5 3.64-14.25 0.89-2.75 3.18-8.15 5.1-12 1.93-3.85 4.94-9.25 6.69-12 1.76-2.75 6.79-8.83 11.19-13.5 4.39-4.67 9.36-10.52 11.03-13 1.67-2.48 4.79-6.04 6.93-7.93 2.14-1.88 6.59-4.67 9.89-6.19 3.3-1.53 9.6-3.45 14-4.29 4.4-0.83 16.33-1.98 26.5-2.55 10.17-0.58 22.66-1.04 27.75-1.04 5.5 0 9.25-0.41 9.25-1 0-0.55 0.22-1 0.5-1zm-1068.58 20.61c3.07 0.32 9.18 1.39 13.58 2.37 4.4 0.98 9.8 2.08 12 2.45 2.2 0.37 6.36 1.32 9.25 2.12 2.89 0.8 5.02 1.9 4.75 2.45-0.28 0.55-0.13 1.11 0.31 1.25 0.45 0.14 2.81 2.89 5.25 6.12 2.44 3.23 7.03 9.31 10.18 13.5 3.45 4.57 7 10.84 8.86 15.63 1.71 4.4 3.74 10.92 4.5 14.5 0.76 3.58 2.07 8.75 2.9 11.5 0.84 2.75 1.52 8.6 1.5 13-0.01 4.49-1.1 13.27-2.48 20-1.35 6.6-3.46 14.48-4.69 17.5-1.22 3.02-3.6 7.85-5.28 10.72-1.68 2.87-5.94 8.72-9.48 13-3.54 4.28-9.17 10.17-12.5 13.09-3.34 2.92-9.9 7.26-14.57 9.64-4.68 2.39-12.78 5.69-18 7.35-5.23 1.65-13.89 3.95-19.25 5.1-5.36 1.16-16.16 2.72-24 3.47-11.18 1.07-15.65 1.96-20.75 4.11-3.58 1.51-9.65 4.83-13.5 7.38-3.85 2.55-10.04 7.68-13.75 11.39-3.71 3.71-7.39 7.99-8.17 9.5-0.78 1.51-1.99 6.8-2.7 11.75-1.01 7.11-1.03 10.42-0.08 15.75 0.66 3.71 2.06 8.44 3.12 10.5 1.05 2.06 3.41 5.37 5.25 7.36 1.83 1.98 6.25 5.49 9.83 7.79 3.57 2.31 9.65 5.12 13.5 6.25 3.85 1.13 13.75 2.93 22 3.99 8.25 1.06 18.37 2.36 22.5 2.87 4.12 0.52 10.42 1.65 14 2.52 3.57 0.86 9.87 2.77 14 4.22 4.12 1.46 12.45 5.18 18.5 8.26 6.05 3.08 14.15 7.62 18 10.1 3.85 2.48 9.92 6.98 13.5 10 3.57 3.01 8.97 7.42 12 9.78 3.02 2.37 7.73 6.17 10.46 8.46 2.72 2.28 6.94 5.95 9.36 8.15 2.43 2.2 5.45 5.8 6.73 8 1.28 2.2 5.21 11.42 8.75 20.5 3.78 9.7 8.31 23.92 10.98 34.5 2.5 9.9 5.52 23.85 6.7 31 1.44 8.69 1.95 14.82 1.52 18.5-0.34 3.02-1.09 7.98-1.65 11-0.56 3.02-2.85 11.35-5.08 18.5-2.24 7.15-7.84 23.35-12.47 36-4.62 12.65-9.39 24.63-10.6 26.62-1.21 2-4.34 6.83-6.95 10.75-2.61 3.92-8.69 11.24-13.5 16.25-4.81 5.02-11.23 11.05-14.25 13.39-3.03 2.34-8.88 6.26-13 8.7-4.13 2.44-14.48 9.36-23 15.38-8.53 6.01-20 13.23-25.5 16.05-5.5 2.81-14.28 6.79-19.5 8.83-5.23 2.05-13.55 4.77-18.5 6.05-4.95 1.28-13.05 2.88-18 3.56-4.95 0.67-9.9 1.69-11 2.25-1.1 0.56-3.8 1.44-6 1.96-2.2 0.51-21.33 1.28-42.5 1.71-21.18 0.42-41.65 1.3-45.5 1.94-3.85 0.64-22.53 3.64-41.5 6.66-18.98 3.03-35.4 5.76-36.5 6.08-1.1 0.33-2.32 1.09-2.72 1.7-0.5 0.79-3.86 0.32-11.5-1.62-5.93-1.51-13.93-4.28-17.78-6.15-4.82-2.35-8.71-5.25-12.5-9.31-3.03-3.25-6.69-8.13-8.15-10.85-1.47-2.72-3.38-7.31-4.25-10.2-1.56-5.12-1.55-5.25 0.4-5.25 1.1 0 3.24-1.05 4.75-2.34 1.51-1.29 3.92-4.78 5.34-7.75 1.43-2.98 3.55-9.24 4.71-13.91 1.16-4.67 3.3-15.47 4.76-24 1.46-8.53 3.74-19.78 5.06-25 1.35-5.3 4.87-14.59 7.95-21 3.05-6.33 7.49-14.65 9.86-18.5 2.38-3.85 6.52-8.95 9.2-11.33 2.68-2.39 8.47-6.11 12.87-8.27 4.4-2.17 12.05-4.88 17-6.03 4.95-1.14 9.9-2.54 11-3.09 1.51-0.76 3.72-0.38 9 1.52 3.85 1.39 9.36 3.24 12.25 4.11 3.14 0.95 5.65 2.39 6.25 3.59 0.55 1.1 4.49 4.33 8.75 7.18 4.26 2.85 10.9 6.67 14.75 8.49 3.85 1.82 9.7 3.84 13 4.48 3.3 0.65 13.2 1.15 22 1.13 9.64-0.03 19.78-0.67 25.5-1.62 5.22-0.87 12.65-2.54 16.5-3.71 3.85-1.18 10.37-3.98 14.5-6.22 4.83-2.63 10.2-6.78 15.08-11.66 4.17-4.16 9.45-10.72 11.72-14.57 2.27-3.85 5.09-9.7 6.25-13 1.16-3.3 2.37-9.6 2.69-14 0.44-6.12 0.17-9.29-1.18-13.5-0.96-3.02-3.68-8.42-6.03-12-2.35-3.58-6.47-8.45-9.15-10.84-2.69-2.39-8.48-6.07-12.88-8.19-4.4-2.11-10.7-4.59-14-5.51-4.69-1.31-12.9-1.84-37.5-2.44-21.55-0.52-34.19-1.26-40-2.35-4.68-0.87-12.33-2.48-17-3.58-4.68-1.09-16.83-4.72-27-8.05-10.2-3.35-24-8.75-30.75-12.05-6.74-3.3-12.59-5.9-13-5.79-0.41 0.11-2.78-0.85-5.25-2.14-2.48-1.29-6.98-4.02-10-6.07-3.03-2.05-10.11-8.51-15.75-14.36-7.43-7.71-10.25-11.32-10.25-13.13 0-1.37-1.77-7.56-3.93-13.75-2.16-6.19-4.83-14.4-5.93-18.25-1.1-3.85-3.19-12.85-7.28-33l1.6-13c0.88-7.15 2.24-17.5 3.02-23 0.79-5.5 1.94-14.05 2.57-19 0.62-4.95 1.57-10.12 2.1-11.5 0.53-1.37 1.4-7.23 1.93-13 0.53-5.77 1.67-12.98 2.54-16 0.86-3.02 3.03-8.65 4.81-12.5 1.78-3.85 5.66-10.15 8.61-14 2.95-3.85 10.11-12.4 15.91-18.99 5.8-6.59 14.37-15.83 19.05-20.52 4.67-4.69 13.67-12.76 20-17.93 6.32-5.17 15.55-12.07 20.5-15.33 4.95-3.27 12.82-7.85 17.5-10.18 4.67-2.33 15.25-6.99 23.5-10.35 8.25-3.36 28.27-11.34 44.5-17.72 16.22-6.38 31.52-12.43 34-13.43 2.47-1.01 11.7-4.18 20.5-7.04 8.8-2.87 22.07-6.75 29.5-8.61 7.42-1.87 13.91-3.84 14.42-4.39 0.52-0.56 3.3-0.73 6.5-0.4zm1211.33 419.46c0.41-0.04 2.15 2.29 3.86 5.18 1.72 2.89 7.34 11.21 12.5 18.5 7.48 10.55 11.48 15.07 19.64 22.19 5.64 4.92 13.04 11.1 16.44 13.75 3.41 2.65 10.62 8.41 16.03 12.81 5.41 4.4 11.35 9.13 16.53 13l-12.18 12-0.58 11c-0.32 6.05-1.66 16.4-2.99 23-1.33 6.6-4.49 18.97-7.02 27.5-2.54 8.53-6.56 21.58-8.93 29-2.38 7.42-5.75 17.55-10.67 31.5l-16.97 13.5c-9.33 7.42-23.14 17.67-30.68 22.76-7.55 5.1-19.13 11.96-25.73 15.25-6.6 3.29-18.08 7.97-25.5 10.39-7.42 2.42-20.7 5.99-29.5 7.93-8.8 1.94-21.85 4.79-29 6.35-9.74 2.11-15.51 2.8-23 2.73-5.5-0.05-13.94-0.61-18.75-1.25-4.81-0.64-8.75-1.61-8.75-2.16 0-0.55 2.59-2.54 5.75-4.43 3.16-1.88 11.83-6.34 19.25-9.91 7.42-3.57 14.51-6.76 15.75-7.08 1.24-0.32 2.14-0.18 2 0.31-0.14 0.49-2.84 3.64-6 7-3.16 3.36-5.64 6.37-5.5 6.68 0.14 0.32 4.75-0.65 10.25-2.14 5.5-1.5 13.37-4.04 17.5-5.64 4.12-1.61 11.33-4.88 16-7.28 4.67-2.39 18.62-9.98 31-16.85 12.37-6.88 28.32-16.7 35.44-21.83 7.12-5.13 15.84-12.03 19.37-15.33 3.54-3.3 8.8-9.6 11.7-14 2.9-4.4 6.65-11.37 8.32-15.5 1.68-4.12 4.62-11.78 6.55-17 1.92-5.22 5.1-13.89 7.06-19.25 1.96-5.36 3.34-9.75 3.06-9.75-0.28 0-3.5 5.06-7.17 11.25-3.67 6.19-9.43 15.53-12.8 20.75-3.37 5.22-8.8 12.21-12.08 15.53-3.27 3.31-11.8 10.56-18.95 16.1-7.15 5.55-17.28 13.02-22.5 16.62-5.22 3.59-14.67 9.66-21 13.48-6.33 3.82-15.55 9.57-20.5 12.77-4.95 3.2-12.6 7.56-17 9.67-4.4 2.12-9.13 3.84-10.5 3.82-2.4-0.04-2.33-0.19 1.55-3.77 2.22-2.04 8.65-7.77 14.27-12.72 5.62-4.95 10.48-9.67 10.79-10.5 0.47-1.23-0.03-1.36-2.77-0.73-1.84 0.43-12.12 5.01-22.84 10.18-10.72 5.18-30.75 13.93-44.5 19.44-13.75 5.52-29.16 11.18-34.25 12.57-5.09 1.4-9.26 2.2-9.27 1.79-0.02-0.41 3.69-2.85 8.25-5.41 4.55-2.56 11.87-6.44 16.27-8.63 4.4-2.18 18.12-8.34 30.5-13.68 12.37-5.34 28.8-12.95 36.5-16.91 7.7-3.96 18.39-9.99 23.75-13.41 5.36-3.42 9.75-6.66 9.75-7.21 0-0.55-0.34-0.84-0.75-0.64-0.41 0.2-5.81 3.35-12 7-6.19 3.65-16.09 9.06-22 12.01-5.91 2.95-24.7 10.55-41.75 16.89-17.05 6.34-33.47 12.04-36.5 12.69-3.03 0.64-6.17 1.31-7 1.5-0.83 0.19-2.17-0.05-3-0.52-1.19-0.69 0.28-2.66 7-9.41 7.17-7.21 9.68-9.04 16-11.66 4.12-1.72 12.45-5.46 18.5-8.32 6.05-2.86 17.39-9.44 25.21-14.62 7.81-5.18 14.24-9.2 14.28-8.92 0.04 0.28-2.98 4.06-6.71 8.41-3.73 4.35-8.69 10.2-11.03 13-2.35 2.8-3.81 5.2-3.25 5.34 0.55 0.14 5.16-2.78 10.25-6.47 5.09-3.7 12.4-9.19 16.25-12.2 3.85-3.01 10.14-8.2 13.97-11.53 3.83-3.33 11.93-10.48 18-15.89 6.39-5.7 11.87-11.49 13.03-13.77 1.1-2.16 4.99-8.76 8.64-14.66 3.65-5.9 7.77-12.98 9.14-15.73 1.38-2.75 3.64-8.83 5.03-13.5 1.4-4.67 4.11-13.9 6.04-20.5 1.93-6.6 3.8-12.9 4.81-16l-1.66 2c-0.92 1.1-3.49 5.6-5.73 10-2.23 4.4-5.68 10.47-7.65 13.5-1.97 3.03-7.36 10-11.97 15.5-4.62 5.5-12.95 15.1-18.52 21.34-5.57 6.24-13.96 14.71-18.63 18.84-4.67 4.12-16.15 12.58-25.5 18.79-9.35 6.22-18.92 12.37-21.28 13.67-2.35 1.3-4.6 2.02-5 1.61-0.39-0.41 4-5.58 9.78-11.5 5.78-5.91 11.85-12.67 13.5-15.01 1.65-2.35 2.66-4.49 2.25-4.75-0.41-0.27-2.44 0.82-4.5 2.41-2.06 1.6-9.38 6.38-16.25 10.61-6.88 4.24-16.33 10.1-21 13.02-4.67 2.92-12.44 7.37-17.25 9.89-4.81 2.52-8.74 4.24-8.72 3.83 0.02-0.41 0.81-1.67 1.75-2.8 0.95-1.13 6-4.92 11.22-8.42 5.22-3.5 13.55-9.38 18.5-13.06 4.95-3.69 10.8-8.29 13-10.24 2.2-1.94 3.66-3.91 3.25-4.38-0.41-0.47-3.34 0.36-6.5 1.85-3.16 1.48-14.08 5.7-24.25 9.38-10.17 3.69-28.17 10.04-40 14.12-11.83 4.08-26.67 8.99-33 10.91-6.45 1.96-13.04 3.36-18.5 2.89l5.5-3.2c3.03-1.75 9.1-4.37 13.5-5.82 4.4-1.44 17.9-7.38 30-13.19 12.1-5.81 31-15.17 42-20.79 11-5.62 24.96-13.32 31.02-17.11 6.07-3.79 14.39-9.41 18.5-12.49 4.12-3.08 9.15-7.13 11.19-9 2.04-1.87 3.73-3.96 3.75-4.65 0.02-0.69-0.3-1.25-0.71-1.25-0.41-0.01-2.33 1.05-4.25 2.36-1.92 1.3-9.8 6.2-17.5 10.88-7.7 4.69-16.81 9.93-20.25 11.64-3.44 1.72-6.68 3.01-7.21 2.87-0.53-0.14 2.45-3.85 6.62-8.25 4.18-4.4 10.17-11.15 13.31-15 3.14-3.85 10.66-13.97 16.71-22.5 6.05-8.53 12.76-18.09 14.91-21.26 2.15-3.17 3.69-5.99 3.41-6.26-0.28-0.28-6.58 5.47-14 12.77-7.42 7.3-16.88 16.01-21 19.35-4.13 3.35-16.5 12.82-27.5 21.06-11 8.24-23.38 17.25-27.5 20.03-4.13 2.78-11.1 7.3-15.5 10.05-4.4 2.75-11.71 6.86-16.25 9.13-4.54 2.27-8.81 4-9.5 3.84-0.69-0.16 2.8-2.66 7.75-5.56 4.95-2.89 10.35-6.36 12-7.7 2.84-2.31 2.88-2.44 0.75-2.45-1.24 0-8.21 2.18-15.5 4.85-7.29 2.67-14.71 5.14-16.5 5.5-1.79 0.36-3.25 0.43-3.25 0.15 0-0.28 6.64-3.91 14.75-8.07 8.11-4.17 24.87-13.65 37.25-21.06 12.37-7.42 24.64-15.04 27.25-16.93 2.61-1.89 4.64-3.68 4.5-3.98-0.14-0.3-6.33 1.53-13.75 4.07-7.42 2.53-22.28 8.81-33 13.94-10.72 5.14-21.75 10.08-24.5 10.99-2.75 0.9-6.13 1.51-7.5 1.34-2.18-0.26-1.41-1.08 5.87-6.3 4.61-3.3 13.61-9.78 20-14.41 6.4-4.62 15.23-11.43 19.63-15.14 4.4-3.7 9.8-8.36 12-10.36 2.2-1.99 3.66-3.62 3.25-3.61-0.41 0.01 2.85-2.68 7.25-5.98 4.4-3.3 8-6.45 8-7 0-0.55 0.79-0.98 1.75-0.96 1.13 0.03 3.76-3.08 7.4-8.75 3.3-5.13 8.92-11.93 13.5-16.31 4.32-4.14 12.35-10.92 17.85-15.06 5.5-4.14 14.95-10.94 21-15.1 6.05-4.17 15.28-10.16 20.5-13.32 5.22-3.16 11.97-6.99 15-8.51 3.03-1.53 10-4.35 15.5-6.28 5.5-1.93 17.09-4.9 25.75-6.61 8.66-1.7 17.66-3.13 20-3.17 2.34-0.04 5.15-0.46 6.25-0.93 1.1-0.47 2.34-0.89 2.75-0.93zm-233 198.01c0.41-0.04 0.75 0.37 0.75 0.92 0 0.55-3.26 2.51-7.25 4.35-3.99 1.84-11.53 4.73-16.75 6.43-5.22 1.7-12.88 4.01-17 5.13-4.13 1.12-10.09 2.38-13.26 2.81-3.17 0.43-5.8 0.49-5.84 0.13-0.04-0.35 12.01-4.55 26.77-9.33 14.75-4.77 27.95-9.06 29.33-9.52 1.37-0.46 2.84-0.88 3.25-0.92z"/>
		<path id="Path 5" class="s5" d="m1538.81 1018.22c-0.84 1.25-3.23 5.65-5.32 9.78-2.08 4.12-5.4 9.97-7.37 13-1.97 3.03-7.36 10-11.97 15.5-4.62 5.5-12.95 15.1-18.52 21.34-5.57 6.24-13.95 14.71-18.63 18.84-4.67 4.12-16.15 12.58-25.5 18.79-9.35 6.22-18.92 12.37-21.28 13.67-2.35 1.3-4.6 2.02-5 1.61-0.39-0.41 4-5.58 9.78-11.5 5.78-5.91 11.85-12.67 13.5-15.01 1.65-2.35 2.66-4.49 2.25-4.75-0.41-0.27-2.44 0.82-4.5 2.41-2.06 1.6-9.37 6.38-16.25 10.61-6.87 4.24-16.32 10.09-21 13-4.67 2.91-11.65 7-15.5 9.1-3.85 2.1-10.37 5.1-14.5 6.68-4.12 1.57-18.07 6.44-31 10.81-12.92 4.38-27.78 9.03-33 10.35-5.22 1.31-14.45 3.34-20.5 4.5-6.05 1.17-12.12 2.36-13.5 2.66-2.33 0.5-2.12 0.77 3 3.98 3.03 1.89 10.22 5.5 16 8.02 5.78 2.52 14.7 6.23 19.83 8.24 6.4 2.5 9.54 3.3 10 2.53 0.37-0.62 3.6-2.6 7.17-4.4 3.58-1.8 15.28-8.43 26-14.74 10.72-6.31 20.96-12.55 22.75-13.86 1.79-1.31 4.04-2.56 5-2.79 0.96-0.22 2.99-0.67 4.5-1 1.51-0.32 2.74-0.25 2.73 0.16-0.01 0.41-1.25 1.98-2.75 3.49-1.5 1.51-2.51 2.96-2.23 3.24 0.28 0.27 3.31-0.62 6.75-1.99 3.44-1.37 11.31-4.89 17.5-7.82 6.19-2.94 17.64-9.57 25.46-14.75 7.81-5.18 14.24-9.2 14.28-8.92 0.04 0.28-2.98 4.06-6.71 8.41-3.73 4.35-8.69 10.2-11.03 13-2.35 2.8-3.81 5.2-3.25 5.34 0.55 0.14 5.16-2.78 10.25-6.47 5.09-3.7 12.4-9.19 16.25-12.2 3.85-3.01 10.14-8.2 13.97-11.53 3.83-3.33 11.93-10.48 18-15.89 6.39-5.7 11.87-11.49 13.03-13.77 1.1-2.16 5.01-8.76 8.68-14.66 3.68-5.9 8.05-13.65 9.71-17.23 1.66-3.58 4.2-10.78 5.64-16 1.44-5.22 4.07-14.44 5.85-20.47 1.77-6.04 3.17-11.11 3.1-11.28-0.07-0.17-0.82 0.71-1.67 1.97z"/>
		<path id="Path 6" class="s6" d="m1454.5 1019.39c-7.15 7.22-16.38 15.87-20.5 19.21-4.13 3.35-16.5 12.82-27.5 21.06-11 8.24-23.38 17.25-27.5 20.03-4.13 2.78-11.1 7.3-15.5 10.05-4.4 2.75-11.71 6.86-16.25 9.13-4.54 2.27-8.81 4-9.5 3.84-0.69-0.16 2.8-2.66 7.75-5.56 4.95-2.89 10.35-6.36 12-7.7 2.84-2.31 2.88-2.44 0.75-2.45-1.24 0-7.99 2.09-15 4.65-7.01 2.55-15.9 5.46-19.75 6.47-3.85 1-12.17 3.19-18.5 4.86-6.33 1.67-15.33 3.68-20 4.47-4.67 0.79-14.35 1.95-21.5 2.59-8.17 0.74-15.5 0.85-19.74 0.32l-6.74-0.86c-0.03 4.65 0.93 7.8 2.11 10 1.18 2.2 4.11 7.94 6.51 12.75l4.36 8.75c8.14-0.93 14.1-1.82 18.5-2.58 4.4-0.76 17.67-4.57 29.5-8.46 11.83-3.9 25.1-8.19 29.5-9.54 4.4-1.35 8.9-2.75 10-3.11 1.69-0.56 1.87-0.36 1.15 1.27-0.7 1.55-0.55 1.78 0.75 1.17 0.88-0.41 1.58-0.41 1.56 0-0.01 0.41-4.28 3.22-9.47 6.25-5.2 3.03-9.34 5.63-9.22 5.78 0.13 0.16 3.15-0.67 6.73-1.83 3.58-1.16 16.4-6.86 28.5-12.67 12.1-5.81 31-15.16 42-20.78 11-5.62 24.96-13.32 31.02-17.11 6.07-3.79 14.39-9.41 18.5-12.49 4.12-3.08 9.15-7.13 11.19-9 2.04-1.87 3.73-3.96 3.75-4.65 0.02-0.69-0.3-1.25-0.71-1.25-0.41-0.01-2.33 1.05-4.25 2.36-1.92 1.3-9.8 6.2-17.5 10.88-7.7 4.69-16.81 9.93-20.25 11.64-3.44 1.72-6.68 3.01-7.21 2.87-0.53-0.14 2.45-3.85 6.62-8.25 4.18-4.4 10.17-11.15 13.31-15 3.14-3.85 10.65-13.97 16.7-22.5 6.04-8.53 12.64-17.98 14.66-21 2.02-3.02 3.68-5.84 3.67-6.25 0-0.41-0.34-0.69-0.75-0.61-0.41 0.07-6.6 6.04-13.75 13.25z"/>
		<path id="Path 7" class="s7" d="m1596.41 1073.25c-3.72 6.19-9.51 15.53-12.88 20.75-3.37 5.22-8.8 12.21-12.08 15.53-3.27 3.31-11.8 10.56-18.95 16.1-7.15 5.55-17.28 13.02-22.5 16.62-5.22 3.59-14.68 9.66-21 13.48-6.33 3.82-15.55 9.57-20.5 12.77-4.95 3.2-12.6 7.56-17 9.67-4.4 2.12-9.13 3.84-10.5 3.82-2.4-0.04-2.33-0.19 1.55-3.77 2.22-2.04 8.65-7.77 14.27-12.72 5.62-4.95 10.48-9.67 10.79-10.5 0.47-1.23-0.03-1.36-2.77-0.73-1.84 0.43-12.12 5.01-22.84 10.18-10.72 5.17-30.19 13.71-43.25 18.97-13.06 5.27-27.46 10.66-32 11.98-4.54 1.32-9.6 2.63-11.25 2.92-1.65 0.29-6.05 1.35-9.77 2.35-3.73 1.01-6.78 2.05-6.78 2.33-0.01 0.28 5.07 1.95 11.27 3.72 6.2 1.77 15.78 4.14 21.28 5.27 5.5 1.12 10.79 2.03 11.75 2.02 0.96 0 4.34-1.67 7.5-3.69 3.16-2.03 12.05-6.72 19.75-10.42 7.7-3.71 15.01-7 16.25-7.32 1.24-0.32 2.14-0.18 2 0.31-0.14 0.49-2.84 3.64-6 7-3.16 3.36-5.64 6.37-5.5 6.68 0.14 0.32 4.75-0.65 10.25-2.14 5.5-1.5 13.37-4.04 17.5-5.64 4.12-1.61 11.32-4.88 16-7.28 4.67-2.39 18.62-9.98 31-16.85 12.37-6.88 28.32-16.7 35.44-21.83 7.12-5.13 15.84-12.03 19.37-15.33 3.54-3.3 8.8-9.6 11.7-14 2.9-4.4 6.65-11.38 8.32-15.5 1.68-4.12 4.62-11.78 6.55-17 1.92-5.22 5.04-13.89 6.92-19.25 1.89-5.36 3.3-9.75 3.14-9.75-0.15 0-3.32 5.06-7.03 11.25z"/>
		<path id="Path 8" class="s8" d="m1580.5 912.73c-2.75 3.03-5.82 5.79-6.82 6.14-1.58 0.55-0.86 2.06 5.52 11.63 4.03 6.05 9.83 14.37 12.87 18.5 3.05 4.12 10.02 11.41 15.49 16.18 5.47 4.78 12.72 10.85 16.12 13.5 3.39 2.65 11.26 8.87 17.47 13.82 6.21 4.95 12.77 10.46 14.57 12.25 2.44 2.41 3.51 2.93 4.16 2 0.48-0.69 1.88-3.27 3.11-5.75 1.23-2.48 3.34-5.63 4.69-7 1.73-1.75 2.3-3.18 1.89-4.75-0.31-1.24-1.24-2.25-2.07-2.25-0.83 0-3.47-1.69-5.88-3.75-2.4-2.06-12.81-10.95-23.12-19.75-10.31-8.8-23.47-21.17-29.25-27.5-5.79-6.33-13.17-15.1-16.41-19.5-3.24-4.4-5.88-8.34-5.87-8.75 0.02-0.41-0.31-0.7-0.72-0.64-0.41 0.06-3 2.59-5.75 5.62z"/>
		<path id="Path 9" fill-rule="evenodd" class="s9" d="m1644.28 435.63c2.87 0.81 8.14 2.89 11.72 4.61 3.58 1.72 8.53 5.21 11 7.76 2.65 2.72 6.42 8.49 9.18 14.06 2.58 5.19 5.61 12.82 6.74 16.94 1.12 4.13 2.92 13.35 3.99 20.5 1.08 7.15 3.09 17.5 4.48 23 1.39 5.5 3.25 13.38 4.13 17.5 0.88 4.13 2.48 14.92 3.56 24 1.07 9.08 2.71 23.02 3.63 31 1.08 9.3 1.7 22.75 1.73 37.5 0.06 22.79 0.03 23.08-2.87 32-1.61 4.95-6.33 15.71-10.5 23.91-4.16 8.2-8.22 15.18-9.01 15.5-1.16 0.48-1.31-0.08-0.74-2.91 0.38-1.92 1.14-7.33 1.68-12 0.54-4.67 0.99-12.77 0.99-18 0-5.23-0.5-12.2-1.11-15.5-0.66-3.59-1.03-16.65-0.93-32.5 0.15-24.59-0.02-27.49-2.39-40.25-1.41-7.56-4.34-20.61-6.52-29-2.17-8.39-5.5-20.65-7.39-27.25-1.9-6.6-5.1-17.4-7.13-24-2.02-6.6-4.57-16.05-5.66-21-1.09-4.95-4.88-17.44-8.42-27.75-3.54-10.31-6.2-18.94-5.91-19.17 0.29-0.23 2.87 0.24 5.75 1.05zm-784.63 11.37c1.02 0 5.45 0.65 9.85 1.43 4.4 0.79 11.15 2.17 15 3.07 3.85 0.9 13.52 3.44 21.5 5.63 7.98 2.2 17.88 5.57 22 7.5 4.13 1.92 10.2 5.15 13.5 7.17 3.3 2.02 9.15 6.27 13 9.46 3.85 3.18 10.98 10.17 15.84 15.52 4.86 5.34 12.15 14.67 16.19 20.72 4.05 6.05 9.38 15.27 11.85 20.5 2.48 5.23 5.92 13.77 7.65 19 2.36 7.1 3.51 13.16 4.55 24 0.76 7.98 1.91 20.35 2.55 27.5 0.63 7.15 1.06 17.95 0.96 24-0.11 6.05-1.11 16.63-2.22 23.5-1.11 6.88-3.36 17.9-5 24.5-1.98 7.97-4.83 15.86-8.49 23.5-3.03 6.33-7.93 15.1-10.87 19.5-2.95 4.4-10.68 13.58-17.19 20.41-6.5 6.82-16.09 15.96-21.32 20.31-5.23 4.35-13.33 10.54-18 13.74-4.67 3.21-13.45 8.32-19.5 11.37-6.05 3.05-20.9 9.45-33 14.22-12.1 4.77-26.73 10.22-32.5 12.11-5.77 1.89-14.33 4.1-19 4.91-4.67 0.81-13.67 1.74-20 2.06-8.05 0.42-15.24 0.1-24-1.06-6.87-0.91-21.5-3.49-32.5-5.74-11-2.24-21.12-4.31-25-5.12l2 2.26c1.1 1.24 6.5 5.64 12 9.78 5.5 4.13 12.7 8.87 16 10.52 3.3 1.65 11.4 4.75 18 6.89 6.6 2.13 15.38 4.51 19.5 5.28 4.13 0.78 12.23 1.72 18 2.11 6.35 0.42 13.86 0.25 19-0.43 4.67-0.62 19.08-3.39 32-6.15 19.37-4.15 23.98-5.47 26.25-7.5 1.51-1.36 3.76-2.67 5-2.91 1.24-0.23 6.3-1.18 11.25-2.1 5.89-1.09 12.29-1.53 18.5-1.27 8.22 0.34 10.23 0.79 14.88 3.35 2.96 1.63 6.67 4.42 8.25 6.21 1.58 1.79 3.72 4.94 4.75 7 1.04 2.06 2.37 6.23 2.97 9.25 0.6 3.02 1.57 20.8 2.15 39.5 0.59 18.7 1.62 39.63 2.28 46.5 0.67 6.88 1.22 19.29 1.22 42.68l-9.09 17.82-7.96 4.05c-4.75 2.41-12.38 5.12-18.95 6.71-6.05 1.47-14.6 3.36-19 4.2-4.4 0.83-11.83 1.99-16.5 2.56-4.67 0.57-25.6 1.31-46.5 1.64-25.13 0.4-43.25 0.21-53.5-0.56-8.52-0.64-17.61-1.48-20.19-1.88-3.81-0.58-4.47-0.97-3.5-2.05 0.65-0.73 4.79-2.41 9.19-3.73 4.4-1.32 13.63-3.55 20.5-4.95 9.77-2 18.61-2.86 40.5-3.97 15.4-0.78 32.95-2.15 39-3.06 6.05-0.9 14.83-2.76 19.5-4.12 4.67-1.36 11.2-3.57 14.5-4.91 3.3-1.34 8.41-3.9 11.35-5.69 2.94-1.78 8.11-6.17 11.5-9.75 3.38-3.58 7.91-9.21 13.97-18.49l-0.65-16.5c-0.36-9.08-1.06-24.37-1.57-34-0.62-11.76-1.6-20.21-3.01-25.75-1.15-4.54-3.36-11.06-4.91-14.5-1.55-3.44-4.36-7.99-6.25-10.11-1.89-2.12-5.01-4.79-6.93-5.92-3.03-1.79-4.57-1.99-11.5-1.49-4.99 0.36-12.13 1.89-19 4.08-6.05 1.92-15.5 4.47-21 5.65-5.5 1.18-13.15 2.83-17 3.65-3.85 0.82-14.2 2.13-23 2.9-8.8 0.77-21.4 1.97-28 2.65-10.41 1.09-13.73 1.03-25-0.42-7.15-0.92-16.37-2.83-20.5-4.24-4.12-1.42-10.2-4.1-13.5-5.96-3.3-1.87-7.62-5.11-9.59-7.22-1.98-2.1-4.66-5.4-5.96-7.32-1.3-1.92-3.44-6.2-4.76-9.5-1.32-3.3-4.04-8.67-6.04-11.92-3.32-5.39-3.63-6.51-3.4-12.25 0.14-3.48 0.48-6.78 0.75-7.33 0.32-0.64 12.58-1 33.75-1 22.14 0.01 38.6-0.5 49.25-1.51 8.8-0.84 20.05-2.22 25-3.06 4.95-0.85 11.7-2.22 15-3.05 3.3-0.82 14.33-5.28 24.5-9.9 10.17-4.62 24.58-11.61 32-15.53 7.42-3.93 20.48-11.77 29-17.43 12.19-8.09 17.53-12.39 25.02-20.15 5.24-5.43 12.23-13.47 15.55-17.87 3.32-4.4 7.97-12.05 10.34-17 2.37-4.95 5.58-12.83 7.15-17.5 1.57-4.67 3.78-14.12 4.9-21 1.13-6.87 2.45-19.92 2.93-29 0.49-9.2 0.51-21.14 0.03-27-0.46-5.77-1.56-13.87-2.43-18-0.87-4.12-2.75-11.55-4.18-16.5-1.43-4.95-4.37-13.73-6.54-19.5-2.17-5.77-5.66-14.1-7.76-18.5-2.1-4.4-7.39-13.4-11.76-20-4.46-6.74-10.31-14.14-13.34-16.88-2.98-2.68-7.89-6.55-10.91-8.58-3.02-2.03-9.77-5.99-15-8.8-5.23-2.8-15.12-7.63-22-10.73-6.87-3.1-17.56-7.18-23.75-9.07-6.19-1.89-11.52-3.89-11.85-4.44-0.33-0.55 0.23-1 1.25-1zm269.93 31.27c10.81 0.22 11.3 0.34 19.75 4.48 6.81 3.34 10.46 6.02 17.04 12.5 4.6 4.54 11.91 13.07 16.25 18.96 4.33 5.89 13.49 19.39 20.36 30 6.86 10.61 14.91 23.34 17.89 28.29 2.98 4.95 10.37 17.33 16.43 27.5 6.05 10.17 13.6 23.67 22.54 41.5l-1.9 11.5c-1.05 6.33-1.9 11.73-1.89 12 0.01 0.27-0.91-0.4-2.05-1.5-1.87-1.81-2.06-1.83-2.03-0.25 0.02 0.96-0.42 1.75-0.97 1.75-0.55 0-1-0.45-1-1 0-0.55-0.67-1-1.5-1-0.83 0-2.96-1.29-4.75-2.88-1.79-1.58-7.07-8.21-11.74-14.75-4.66-6.53-14.97-20.64-22.89-31.37-7.93-10.73-15.97-21.52-17.87-24-1.91-2.48-8.03-10.58-13.61-18-5.57-7.42-13.74-17.13-18.14-21.56-4.4-4.43-9.54-10.05-11.42-12.5-1.88-2.44-5.48-6.62-8-9.27-2.52-2.66-7.28-6.22-10.58-7.91-5.65-2.9-7.04-3.14-24-4.26-16.29-1.08-18.57-1.03-24 0.53-3.3 0.95-9.15 3.01-13 4.56-3.85 1.56-9.81 4.32-13.25 6.12-3.56 1.88-6.46 2.86-6.75 2.29-0.28-0.55 1.19-3.11 3.25-5.69 2.06-2.57 7.13-7.73 11.25-11.46 4.13-3.73 12-10.15 17.5-14.28 5.5-4.12 13.15-9.31 17-11.53 3.85-2.22 10.15-5.15 14-6.52 6.08-2.16 8.45-2.46 18.08-2.25zm827.47 7.73c0.52 0 5.08 3.71 10.13 8.25 5.05 4.54 10.79 10.17 12.75 12.52 1.96 2.35 5.27 7.07 7.34 10.5 2.07 3.43 4.43 8.59 5.25 11.48 0.84 2.99 1.48 9.45 1.49 15 0.01 5.36-0.66 13.58-1.47 18.25-0.82 4.67-2.67 12.55-4.12 17.5-1.44 4.95-4.94 14.4-7.78 21-2.84 6.6-12.65 26.17-21.8 43.5-9.16 17.33-19.24 36-22.4 41.5-3.17 5.5-11.14 18.33-17.71 28.5-6.58 10.17-13.64 21.2-15.7 24.5-2.05 3.3-10.39 16.58-18.54 29.5-8.15 12.92-22.07 34.3-30.95 47.5-8.87 13.2-23.74 34.13-33.03 46.5-9.29 12.38-21.89 28.8-28.01 36.5-6.11 7.7-18.04 21.88-26.5 31.5-8.47 9.63-21.05 23.53-27.95 30.91-6.9 7.37-20.31 20.54-29.8 29.25-9.49 8.71-17.7 15.84-18.25 15.84-0.55 0-1.11-0.37-1.25-0.83-0.14-0.46-3.91-3.95-8.38-7.75-4.47-3.81-8.86-7.37-9.76-7.92-1.41-0.86-0.4-2.56 7.06-12 4.79-6.05 12.56-15.54 17.27-21.1 4.71-5.55 10.89-12.98 13.74-16.5 2.85-3.52 8.92-11.18 13.5-17.01 4.58-5.84 11.24-14.36 14.82-18.95 3.58-4.58 8.29-10.61 10.49-13.39 2.19-2.78 6.44-8.42 9.43-12.55 3-4.12 10.61-14.7 16.92-23.5 6.32-8.8 13.55-18.77 16.07-22.15 2.52-3.39 8.25-11.26 12.72-17.5 4.48-6.24 9.91-14.27 12.07-17.85 2.17-3.58 7.9-13.7 12.74-22.5 4.83-8.8 10.94-19.83 13.56-24.5 2.63-4.67 5.79-10.52 7.02-13 1.23-2.48 4.51-8.33 7.28-13 2.78-4.67 9.87-16.15 15.76-25.5 5.9-9.35 13.31-21.5 16.46-27 3.16-5.5 10.04-16.75 15.29-25 5.24-8.25 13.21-21.3 17.69-29 4.48-7.7 11.11-19.4 14.73-26 4.73-8.62 7.45-15.09 9.66-23 1.7-6.05 3.97-16.62 5.05-23.5 1.08-6.87 2.42-17.23 2.97-23 0.56-5.77 1.31-15.9 1.68-22.5 0.37-6.6 0.86-12.34 1.09-12.75 0.23-0.41 0.85-0.75 1.37-0.75zm-509.24 4.87c0.93 0.49 8.05 7.13 15.83 14.76 11.6 11.39 14.69 15.03 17.23 20.37 1.7 3.58 3.89 9.42 4.86 13 1.36 5 1.75 10.08 1.68 22-0.08 13.29-0.54 17.67-3.25 30.75-1.74 8.39-5.45 24.14-8.25 35-2.8 10.86-9.31 34.6-14.46 52.75-5.15 18.15-11.61 42.45-14.35 54-2.74 11.55-7.94 33.38-11.57 48.5-3.62 15.13-9.3 35.83-12.62 46-3.33 10.17-7.38 23.9-9.01 30.5-1.63 6.6-3.84 15.38-4.92 19.5-1.08 4.13-3.7 12.9-5.84 19.5-2.13 6.6-5.06 14.36-6.51 17.25-1.45 2.89-4.54 7.31-6.88 9.84-2.34 2.52-6.28 5.87-8.75 7.45-2.47 1.58-7.2 3.82-10.5 4.97-3.3 1.15-13.2 3.22-22 4.6-8.8 1.38-20.05 3.41-25 4.51-4.95 1.09-19.8 4.18-33 6.86-13.2 2.68-28.95 5.56-35 6.4-6.05 0.83-18.65 2.08-28 2.76-13.51 0.99-17.62 1-20 0.01-1.65-0.68-4.46-2.57-6.25-4.19-1.79-1.63-3.25-3.19-3.25-3.46 0-0.27 3.04-2.25 6.75-4.39 3.71-2.13 10.12-5.81 14.25-8.18 4.12-2.36 10.76-5.78 14.75-7.61 3.99-1.83 8.6-3.32 10.25-3.32 1.65 0 8.51-1.15 15.25-2.55 6.74-1.41 18.78-4.81 26.75-7.56 7.97-2.75 23.16-7.9 33.75-11.44 10.59-3.55 22.51-8.09 26.5-10.1 3.99-2 9.72-5.47 12.75-7.71 3.03-2.24 7.47-5.88 9.88-8.1 2.41-2.22 6.31-6.74 8.67-10.04 2.37-3.3 5.68-8.92 7.37-12.5 1.69-3.58 4.61-12.58 6.49-20 1.88-7.42 3.91-18.67 4.5-25 0.6-6.33 1.09-14.65 1.09-18.5 0.01-4.93 1.18-11.44 3.97-22 2.17-8.25 5.11-20.4 6.53-27 1.43-6.6 5.97-22.35 10.11-35 4.13-12.65 9.54-31.33 12.01-41.5 2.47-10.17 5.58-23.67 6.91-30 1.34-6.33 2.91-16.9 3.5-23.5 0.6-6.6 1.48-16.27 1.97-21.5 0.5-5.23 2.28-19.85 3.96-32.5 2.36-17.65 3.09-27.07 3.17-40.5 0.08-14.72-0.23-18.69-1.95-25-1.12-4.12-1.82-7.84-1.55-8.25 0.27-0.42 1.25-0.36 2.18 0.12zm-1047.01 17.15c0.38 0.01 5.87 1.55 12.2 3.42 6.32 1.87 16 4.95 21.5 6.85 5.5 1.89 12.92 4.92 16.5 6.73 3.57 1.81 9.04 5.8 12.15 8.88 3.61 3.59 6.85 8.12 8.99 12.6 3.15 6.58 3.37 7.75 3.71 19.5 0.33 11.45 0.13 13.17-2.33 20.5-1.48 4.4-7.32 17.45-12.97 29-6.93 14.15-13.47 25.73-20.06 35.5-5.38 7.98-15 21.68-21.38 30.44-6.39 8.77-14.31 18.83-17.61 22.35-3.91 4.17-8.09 7.41-12 9.31-3.88 1.89-9.01 3.33-14.5 4.06-6.99 0.94-10.99 0.84-22.5-0.52-7.7-0.91-17.83-1.66-22.5-1.65-4.68 0-11.2 0.71-14.5 1.57-3.3 0.86-8.48 2.88-11.5 4.49-3.02 1.62-7.24 4.63-9.37 6.69-2.13 2.07-4.72 5.45-5.75 7.51-1.03 2.06-1.88 4.65-1.88 5.75 0 1.1 1.46 3.42 3.25 5.14 1.79 1.73 5.27 4.52 7.75 6.2 2.48 1.68 7.2 4.26 10.5 5.73 3.3 1.47 10.95 3.83 17 5.24 6.05 1.4 14.82 3.3 19.5 4.21 4.67 0.91 17.73 3.68 29 6.17 11.27 2.49 24.32 5.87 29 7.52 4.67 1.66 9.62 3.58 11 4.27 1.37 0.69 4.19 1.54 6.25 1.89 2.21 0.37 7.74 3.34 13.5 7.24 5.36 3.64 12.45 8.98 15.75 11.87 3.3 2.89 8.53 8.8 11.63 13.14 3.09 4.33 7.7 11.48 10.23 15.88 2.53 4.4 8.24 15.88 12.69 25.5 4.44 9.63 10.03 22 12.4 27.5 2.38 5.5 5.71 14.73 7.41 20.5 1.7 5.77 3.84 15.23 4.77 21 1.26 7.88 1.69 17.1 1.71 37 0.03 23.21-0.24 27.99-2.19 38.5-1.22 6.6-3.59 16.05-5.26 21-1.67 4.95-5.05 13.72-7.51 19.5-2.47 5.78-7.16 15.45-10.43 21.5-3.27 6.05-9.63 15.95-14.14 22-4.51 6.05-13.62 16.42-20.25 23.04-6.63 6.62-15.44 14.53-19.56 17.58-4.13 3.04-12.23 8.48-18 12.09-5.77 3.61-15.23 9.05-21 12.1-5.77 3.04-17.48 8.47-26 12.07-8.52 3.6-19.55 7.95-24.5 9.67-4.95 1.72-13.73 4.19-19.5 5.49-5.77 1.31-16.13 3.07-23 3.92-6.88 0.85-15.65 1.53-19.5 1.52-3.85-0.02-8.8-0.53-11-1.14-2.41-0.67-14.95-1.19-31.5-1.3-15.13-0.1-32.68-0.74-39-1.42-6.33-0.68-18.25-2.1-26.5-3.16-8.25-1.06-23.89-3.4-34.76-5.2-13.41-2.21-19.75-3.66-19.75-4.51 0.01-0.69 1.02-1.45 2.26-1.69 1.24-0.24 17.77-2.91 36.75-5.94 18.97-3.03 37.65-6.04 41.5-6.68 3.85-0.64 24.32-1.52 45.5-1.94 21.17-0.43 40.3-1.2 42.5-1.71 2.2-0.52 4.9-1.4 6-1.96 1.1-0.56 6.05-1.58 11-2.25 4.95-0.68 13.05-2.28 18-3.56 4.95-1.28 13.27-4 18.5-6.05 5.22-2.04 14-6.02 19.5-8.83 5.5-2.82 16.98-10.04 25.5-16.05 8.52-6.02 18.87-12.94 23-15.38 4.12-2.44 9.97-6.36 13-8.7 3.02-2.34 9.44-8.37 14.25-13.39 4.81-5.01 10.89-12.33 13.5-16.25 2.61-3.92 5.74-8.75 6.95-10.75 1.21-1.99 5.98-13.97 10.6-26.62 4.63-12.65 10.23-28.85 12.47-36 2.23-7.15 4.52-15.48 5.08-18.5 0.56-3.02 1.31-7.98 1.65-11 0.43-3.68-0.08-9.81-1.52-18.5-1.18-7.15-4.2-21.1-6.7-31-2.67-10.58-7.2-24.8-10.98-34.5-3.54-9.08-7.47-18.3-8.75-20.5-1.28-2.2-4.3-5.8-6.73-8-2.42-2.2-6.64-5.87-9.36-8.15-2.73-2.29-7.44-6.09-10.46-8.46-3.02-2.36-8.43-6.77-12-9.78-3.58-3.02-9.65-7.52-13.5-10-3.85-2.48-11.95-7.02-18-10.1-6.05-3.08-14.38-6.8-18.5-8.26-4.13-1.45-10.43-3.36-14-4.22-3.58-0.87-9.88-2-14-2.52-4.13-0.51-14.25-1.81-22.5-2.87-8.25-1.06-18.15-2.86-22-3.99-3.85-1.13-9.93-3.94-13.5-6.25-3.58-2.3-8-5.81-9.83-7.79-1.84-1.99-4.2-5.3-5.25-7.36-1.06-2.06-2.46-6.79-3.12-10.5-0.95-5.33-0.93-8.64 0.08-15.75 0.71-4.95 1.92-10.24 2.7-11.75 0.78-1.51 4.46-5.79 8.17-9.5 3.71-3.71 9.9-8.84 13.75-11.39 3.85-2.55 9.92-5.87 13.5-7.38 5.1-2.15 9.57-3.04 20.75-4.11 7.84-0.75 18.64-2.31 24-3.47 5.36-1.15 14.02-3.45 19.25-5.1 5.23-1.66 13.32-4.96 18-7.35 4.67-2.38 11.23-6.72 14.57-9.64 3.33-2.92 8.96-8.81 12.5-13.09 3.54-4.28 7.8-10.13 9.48-13 1.68-2.87 4.06-7.7 5.28-10.72 1.23-3.02 3.34-10.9 4.69-17.5 1.38-6.73 2.47-15.51 2.48-20 0.02-4.4-0.66-10.25-1.5-13-0.83-2.75-2.14-7.92-2.9-11.5-0.76-3.58-2.79-10.1-4.5-14.5-1.86-4.79-5.41-11.06-8.86-15.63-3.15-4.19-7.74-10.27-10.18-13.5-2.44-3.23-4.8-5.98-5.25-6.12-0.44-0.14-0.56-0.7-0.26-1.25 0.3-0.55 0.86-0.99 1.25-0.98zm-275.05 359.01c0.41 0.01 6.15 2.71 12.75 5.98 6.92 3.44 19.83 8.53 30.5 12.03 10.17 3.33 22.32 6.96 27 8.05 4.67 1.1 12.32 2.71 17 3.58 5.81 1.09 18.45 1.83 40 2.35 24.6 0.6 32.81 1.13 37.5 2.44 3.3 0.92 9.6 3.4 14 5.51 4.4 2.12 10.19 5.8 12.88 8.19 2.68 2.39 6.8 7.26 9.15 10.84 2.35 3.58 5.07 8.98 6.03 12 1.35 4.21 1.62 7.38 1.18 13.5-0.32 4.4-1.53 10.7-2.69 14-1.16 3.3-3.98 9.15-6.25 13-2.27 3.85-7.55 10.41-11.72 14.57-4.88 4.88-10.25 9.03-15.08 11.66-4.13 2.24-10.65 5.04-14.5 6.22-3.85 1.17-11.27 2.84-16.5 3.71-5.72 0.95-15.86 1.59-25.5 1.62-8.8 0.02-18.7-0.48-22-1.12-3.3-0.64-9.6-2.92-14-5.05-4.4-2.14-11.14-6.08-14.98-8.75-3.85-2.67-7.12-5.53-7.27-6.36-0.24-1.29 1.47-1.19 11.99 0.7 6.74 1.21 16.53 2.5 21.76 2.86 5.37 0.38 14.5 0.15 21-0.5 6.32-0.65 20.5-2.45 31.5-4.01 15.7-2.22 21.13-3.39 25.25-5.44 2.89-1.44 7.39-4.77 10-7.41 2.61-2.63 6.19-7.47 7.96-10.75 1.76-3.27 4.16-9.78 5.33-14.45 1.8-7.17 1.96-9.2 1.02-13-0.62-2.48-2.81-6.75-4.89-9.5-2.07-2.75-5.99-6.67-8.72-8.72-2.72-2.04-6.75-4.6-8.95-5.7-2.2-1.09-6.7-2.68-10-3.52-3.4-0.87-14.66-1.97-26-2.53-11.98-0.6-23.61-1.75-29-2.89-4.95-1.04-13.95-3.25-20-4.91-6.05-1.66-13.25-3.34-16-3.74-2.75-0.41-12.2-3.54-21-6.97-8.8-3.43-17.58-6.91-19.5-7.74-1.93-0.83-7.55-3.85-12.5-6.71-4.95-2.86-10.9-6.64-13.22-8.39-2.32-1.75-4.23-3.52-4.25-3.93-0.02-0.41 0.31-0.74 0.72-0.72zm1529.23 138.97c0.31 0 0.44 0.67 0.29 1.5-0.19 1.03 0.59 1.5 2.48 1.51 1.8 0.01 3.96 1.23 6.25 3.52 2.94 2.93 4.55 3.65 10 4.43 5.21 0.75 6.8 0.66 8-0.49 0.83-0.78 1.95-1.44 2.5-1.47 0.55-0.04 2.41 2.77 4.14 6.22 1.73 3.45 3.98 8.98 5 12.28 1.5 4.84 1.85 9.1 1.8 22-0.06 14.46-0.33 16.87-2.8 25-1.5 4.95-5.33 14.4-8.5 21-3.18 6.6-7.35 14.47-9.29 17.5-1.93 3.03-6.4 8.84-9.93 12.92-3.53 4.09-10.47 11.01-15.42 15.38-4.95 4.37-13.28 11.01-18.5 14.75-5.22 3.74-15.58 10.45-23 14.92-7.42 4.47-18.9 10.74-25.5 13.93-6.6 3.2-15.15 7-19 8.45-3.85 1.45-12.85 4.39-20 6.55-7.15 2.16-20.88 5.51-30.5 7.46-9.63 1.94-23.24 4.01-30.25 4.59-7.01 0.58-18.83 1.05-26.25 1.05-8.33 0-13.5-0.38-13.5-1 0-0.55 1.01-1.18 2.25-1.41 1.24-0.22 7.2-1.38 13.25-2.58 6.05-1.19 18.2-3.75 27-5.69 8.8-1.93 22.08-5.5 29.5-7.92 7.42-2.42 18.9-7.1 25.5-10.39 6.6-3.29 18.18-10.15 25.73-15.25 7.54-5.09 21.35-15.34 47.65-36.26l3.17-9c1.75-4.95 5.12-15.08 7.5-22.5 2.37-7.42 6.39-20.47 8.93-29 2.53-8.53 5.69-20.9 7.02-27.5 1.33-6.6 2.68-16.95 3.62-34l5.15-5.25c2.84-2.89 5.41-5.25 5.71-5.25z"/>
		<path id="Path 10" class="s10" d="m1573.43 902.76l-5.08 6.74c2.64 6.98 4.02 9.14 4.78 9.3 0.75 0.17 3.96-2.42 7.12-5.75 3.16-3.33 5.75-6.5 5.75-7.05 0-0.55-1.24-3.01-2.75-5.47-1.51-2.46-3.2-4.48-3.75-4.49-0.55-0.01-3.28 3.02-6.07 6.72z"/>
		<path id="Path 11" class="s11" d="m1726.26 656.28c-2.64 5.22-3.15 5.78-3.2 3.47-0.03-1.51-0.51-2.75-1.06-2.75-0.55 0-1.14 0.79-1.3 1.75-0.22 1.3-0.74 0.91-2-1.5-1.04-1.99-2.2-3.02-2.98-2.64-0.71 0.33-1.39 1.01-1.5 1.5-0.12 0.49-3.56 8.65-7.64 18.14-4.09 9.49-11.34 25.8-16.13 36.25-4.79 10.45-8.7 19.9-8.69 21 0.01 1.1-2.86 10.89-6.37 21.75l-6.39 19.75-6.5-3.94c-6.51 11.19-16.64 27.81-26.7 44.15-12.61 20.46-22.68 35.4-32.36 48-7.74 10.06-15.95 21.1-18.25 24.54-3.37 5.03-3.95 6.5-2.94 7.54 0.69 0.71 2.26 2.96 3.5 5 1.24 2.04 2.7 3.71 3.25 3.71 0.55 0 1-0.45 1-1 0-0.55 6.81-7.86 15.14-16.25 8.33-8.39 16.93-17.5 19.11-20.25 2.18-2.75 6.91-9.95 10.52-16 3.61-6.05 14.45-22.92 24.09-37.5 13.67-20.66 17.5-27.16 17.39-29.5-0.1-1.93 0.84-4.25 2.62-6.5 1.52-1.92 4.74-6.42 7.14-10 2.41-3.58 6.48-11 9.05-16.5 2.57-5.5 7.72-16.3 11.44-24 3.71-7.7 9.25-20.52 12.29-28.5 4.53-11.86 5.59-15.78 5.78-21.5 0.14-3.85 1.33-10.78 2.66-15.39 1.32-4.61 2.35-8.54 2.29-8.72-0.07-0.18-1.54 2.47-3.26 5.89zm-205.26 247.42c-1.38 0.24-7 1.55-12.5 2.91-5.5 1.36-13.6 4.22-18 6.34-4.4 2.12-11.6 6.44-16 9.6-4.4 3.16-10.62 8.04-13.81 10.85-3.2 2.8-9.97 9.83-15.04 15.6-5.08 5.78-11.49 13.42-14.26 17-2.76 3.58-7.89 10.55-11.39 15.5-3.5 4.95-10 13.9-14.44 19.89-4.43 5.99-8.17 11.5-8.31 12.25-0.2 1.1 0.18 1.13 2 0.17 1.24-0.66 9.67-8.2 18.75-16.76 9.08-8.57 21-18.97 26.5-23.12 5.5-4.15 14.95-10.95 21-15.11 6.05-4.17 15.28-10.16 20.5-13.32 5.22-3.16 11.97-6.99 15-8.51 3.03-1.53 10-4.35 15.5-6.27 5.5-1.93 18.1-5.12 28-7.1 9.9-1.97 18.45-3.63 19-3.68 0.55-0.04 0.1-0.47-1-0.94-1.1-0.47-4.44-0.89-7.42-0.93-2.98-0.04-5.08-0.41-4.67-0.82 0.41-0.41 4.41-0.97 8.89-1.25l8.13-0.5c-10.02-6.49-14.06-9.32-15.43-10.47-2.28-1.91-3.63-2.08-15.5-1.92-7.15 0.09-14.13 0.36-15.5 0.59z"/>
		<path id="Path 12" class="s12" d="m1590 434.01c-6.33 0.38-14.2 1.24-17.5 1.9-3.3 0.67-9.6 2.37-14 3.79-4.4 1.41-11.6 4.34-16 6.52-4.4 2.17-9.58 5.13-11.5 6.58-1.92 1.45-5.69 4.9-8.36 7.67-2.69 2.78-6.49 8.37-8.5 12.48-3.41 6.98-3.64 8.04-3.64 17 0 6.79 0.55 11.14 1.9 15.05 1.05 3.02 5.04 12.25 8.87 20.5 3.82 8.25 11.57 24.67 17.22 36.5 5.64 11.83 11.84 25.55 13.76 30.5 1.93 4.95 3.79 10.01 4.13 11.25 0.34 1.24 1.29 2.25 2.12 2.25 1.24 0 1.4-1.16 0.92-6.75-0.32-3.71-1.7-13.27-3.06-21.25-1.37-7.98-4.24-20.35-6.38-27.5-2.13-7.15-4.61-15.02-5.49-17.5-0.89-2.48-2.66-8.77-3.94-14-1.28-5.23-2.65-13.55-3.04-18.5-0.44-5.54-0.29-11.31 0.4-15 0.61-3.3 2.36-8.02 3.89-10.5 1.76-2.85 5.69-6.59 10.74-10.22 4.38-3.14 12.68-8.17 18.46-11.17 5.78-3 13.88-6.79 18-8.43 4.13-1.64 10.99-4.6 15.25-6.58 4.26-1.98 7.75-4.05 7.75-4.6 0-0.56-2.31-0.93-5.25-0.84-2.89 0.08-10.42 0.46-16.75 0.85zm237.75 4.06c-4.26 1.06-10.56 3.34-14 5.07-3.52 1.77-8.66 5.6-11.75 8.75-3.03 3.09-8.22 9.66-11.54 14.61-3.32 4.95-8.11 13.27-10.65 18.5-2.54 5.23-7.1 15.8-10.13 23.5-3.04 7.7-6.73 16.7-8.21 20-1.47 3.3-8.44 20.17-15.48 37.5-7.04 17.33-15.53 40.27-18.86 51-3.33 10.73-7.43 23.55-9.11 28.5-1.67 4.95-3.04 9.11-3.03 9.25 0.01 0.14 0.46 0.02 1.01-0.25 0.55-0.27 1.76 0.96 2.7 2.75 1.26 2.41 1.78 2.8 2 1.5 0.16-0.96 0.75-1.75 1.3-1.75 0.55 0 1.02 1.24 1.05 2.75 0.04 2.31 0.6 1.71 3.49-3.75 2.26-4.27 3.23-5.47 2.81-3.5-0.34 1.65-1.69 5.81-2.99 9.25-1.3 3.44-2.02 6.45-1.61 6.7 0.41 0.24 1.71-1.45 2.88-3.75 1.17-2.31 3.77-8.7 5.78-14.2 2.01-5.5 5.42-14.73 7.59-20.5 2.16-5.77 6.85-17.7 10.43-26.5 3.59-8.8 8.52-22.3 10.97-30 2.45-7.7 5.64-18.27 7.1-23.5 1.45-5.23 5.77-16.48 9.6-25 3.83-8.52 8.85-18.43 11.17-22 2.31-3.57 7.81-10.11 12.22-14.53 5.89-5.91 10.13-9.13 16.01-12.14 4.4-2.26 11.15-5.24 15-6.61 3.85-1.38 11.05-3 16-3.61 4.95-0.61 12.15-1.1 16-1.1 3.85 0 11.05 0.66 16 1.46 4.95 0.81 11.47 2.32 14.5 3.37 3.51 1.21 5.5 2.46 5.5 3.46 0 1.1 2.06 2.07 7 3.3 3.85 0.95 8.8 2.55 11 3.54 2.2 1 5.8 1.83 8 1.84 2.2 0.01 7.15 0.92 11 2.02 3.85 1.1 7.34 2 7.75 2 0.41 0 0.66-1.46 0.55-3.25-0.1-1.79-0.89-4.11-1.75-5.15-0.85-1.05-6.27-5.03-12.05-8.86-5.78-3.82-12.53-7.97-15-9.22-2.47-1.24-13.28-5.98-24-10.52-10.72-4.55-23.78-9.34-29-10.65-7.07-1.77-12.06-2.36-19.5-2.29-6.25 0.05-12.91 0.81-17.75 2.01zm-1051.25 9.02c-7.15 0.43-19.08 1.5-26.5 2.37-7.42 0.86-20.25 2.96-28.5 4.65-8.25 1.69-19.5 4.55-25 6.35-5.5 1.8-12.7 4.65-16 6.32-3.3 1.68-6.68 3.88-7.52 4.89-0.84 1-8.71 6.01-17.5 11.12-8.79 5.11-19.89 12.08-24.66 15.5-4.77 3.42-14.44 10.71-21.49 16.21-7.04 5.5-17.33 14.5-22.85 20-5.53 5.5-14.56 16.08-20.08 23.5-5.52 7.42-13.08 18.23-16.79 24-3.71 5.77-11.62 20.4-17.57 32.5-5.96 12.1-12.46 26.27-14.45 31.5-1.98 5.23-4.98 14.23-6.64 20-1.67 5.77-4.36 17.02-5.97 25-1.61 7.98-3.62 20.58-4.47 28-0.85 7.42-1.65 14.68-1.78 16.11-0.15 1.7 0.21 2.49 1.02 2.25 0.69-0.2 1.26-0.92 1.27-1.61 0.01-0.69 2.01-4.62 4.43-8.75 2.42-4.12 5.84-11.1 7.59-15.5 1.75-4.4 4.68-12.73 6.51-18.5 1.83-5.77 6.42-16.58 10.2-24 3.78-7.42 8.74-16.2 11.02-19.5 2.28-3.3 7.6-10.73 11.83-16.5 4.23-5.77 11.57-15 16.32-20.5 4.75-5.5 10.71-12.7 13.24-16 2.53-3.3 12.64-14.35 22.47-24.56 9.83-10.21 22.6-23.05 28.37-28.53 5.77-5.48 13.65-12.68 17.5-15.99 3.85-3.32 11.27-9.19 16.5-13.04 5.23-3.85 16.25-11.07 24.5-16.05 8.25-4.97 24.45-13.91 36-19.86 11.55-5.96 23.25-11.96 26-13.34 2.75-1.38 12.38-5.68 21.4-9.57 9.02-3.88 16.45-7.62 16.51-8.31 0.07-0.69-0.33-1.18-0.89-1.1-0.56 0.08-6.87 0.5-14.02 0.94zm553.5 10.49c-3.58 0.78-8.53 2.21-11 3.17-2.47 0.96-7.09 3.66-10.25 6-3.22 2.38-7.21 6.56-9.08 9.5-1.83 2.89-4.12 7.27-5.08 9.75-0.97 2.48-2.62 11.02-3.67 19-1.05 7.98-3.28 21.02-4.96 29-1.68 7.98-5.52 26.42-8.53 41-3.01 14.58-6.85 31.67-8.53 38-1.69 6.33-3.14 11.89-3.23 12.37-0.09 0.49 0.28 1.07 0.83 1.3 0.55 0.23 4.53-6.69 8.84-15.38 4.31-8.68 10.27-19.95 13.25-25.04 4.22-7.22 5.86-11.28 7.44-18.5 1.12-5.09 2.76-11.5 3.64-14.25 0.89-2.75 3.18-8.15 5.1-12 1.93-3.85 4.94-9.25 6.69-12 1.76-2.75 6.79-8.83 11.19-13.5 4.39-4.67 9.36-10.52 11.03-13 1.67-2.48 4.79-6.04 6.93-7.93 2.14-1.88 6.59-4.67 9.89-6.19 3.3-1.53 9.6-3.45 14-4.29 4.4-0.83 16.33-1.98 26.5-2.55 10.17-0.58 22.66-1.04 27.75-1.04 7.56 0 9.25-0.27 9.25-1.5 0-0.82-2.14-2.57-4.75-3.87-2.61-1.3-8.8-3.98-13.75-5.95-4.95-1.97-14.63-5.2-21.5-7.17-6.88-1.98-16.55-4.25-21.5-5.05-4.95-0.8-13.72-1.42-19.5-1.38-5.78 0.05-13.42 0.72-17 1.5zm-1028.5 42.13c-2.2 0.2-14.57 1.7-27.5 3.33-12.93 1.64-28.22 3.92-34 5.08-5.78 1.17-18.6 4.74-28.5 7.95-9.9 3.21-23.63 8.15-30.5 10.97-6.88 2.82-16.78 7.33-22 10.01-5.22 2.68-12.65 6.97-16.5 9.54-3.85 2.57-11.5 8.18-17 12.47-5.5 4.29-15.65 13.57-22.55 20.62-6.91 7.05-15.28 16.42-18.62 20.82-3.33 4.4-9.76 13.63-14.28 20.5-4.52 6.88-10.38 17-13.04 22.5-2.65 5.5-5.94 13.6-7.32 18-1.38 4.4-3.2 11.38-4.05 15.5-0.86 4.13-2.29 13.13-3.19 20-1.2 9.16-1.52 17.3-1.18 30.5 0.26 10.21 1.15 21.68 2.05 26.5 0.88 4.67 2.77 12.1 4.2 16.5 1.44 4.4 4.63 12.27 7.11 17.5 2.48 5.23 6.12 12.2 8.09 15.5 1.97 3.3 7.23 11.08 11.68 17.29 4.46 6.2 8.44 11.26 8.85 11.25 0.41-0.02 0.75-0.71 0.75-1.54 0-0.83-1.77-6.56-3.93-12.75-2.16-6.19-4.83-14.4-5.93-18.25-1.1-3.85-3.19-12.85-4.64-20l-2.64-13c2.48-20.15 3.84-30.5 4.62-36 0.79-5.5 1.94-14.05 2.57-19 0.62-4.95 1.57-10.12 2.1-11.5 0.53-1.37 1.4-7.23 1.93-13 0.53-5.77 1.67-12.98 2.54-16 0.86-3.02 3.03-8.65 4.81-12.5 1.78-3.85 5.66-10.15 8.61-14 2.95-3.85 10.11-12.4 15.91-18.99 5.8-6.59 14.38-15.83 19.05-20.52 4.68-4.69 13.68-12.76 20-17.93 6.32-5.17 15.55-12.07 20.5-15.33 4.95-3.27 12.82-7.85 17.5-10.18 4.68-2.33 15.25-6.99 23.5-10.35 8.25-3.36 28.28-11.34 44.5-17.72 16.23-6.38 31.52-12.43 34-13.43 2.48-1.01 11.7-4.18 20.5-7.04 8.8-2.87 22.07-6.75 29.5-8.61 7.43-1.87 13.93-3.85 14.45-4.4q0.95-1-23.5-0.83c-13.45 0.09-26.25 0.33-28.45 0.54zm1369.92 250.86c-7.49 15.61-8.68 18.73-7.42 19.54 0.82 0.52 2.29 1.39 3.25 1.92 1.56 0.87 2.45-1.16 8.25-18.78 3.57-10.86 6.5-20.09 6.5-20.5 0-0.41-0.37-0.75-0.83-0.75-0.46 0-4.84 8.36-9.75 18.57zm-69.03 136.68c-4.37 4.54-9.18 9.71-10.67 11.5-1.5 1.79-2.94 3.25-3.22 3.25-0.28 0-1.74-2.02-3.25-4.5-1.51-2.47-3.31-4.5-4-4.5-0.9 0-1.01 0.77-0.41 2.75 0.47 1.51 1.93 4.43 3.25 6.49 1.33 2.05 2.75 3.74 3.16 3.75 0.41 0 5.59-5.43 11.5-12.08 5.91-6.64 11.06-12.72 11.45-13.5 0.38-0.77 0.57-1.41 0.42-1.41-0.15 0-3.85 3.71-8.23 8.25zm-50.24 17.39c-0.07 0.47 3.34 3.11 7.57 5.86l7.7 5c-12.6 0.77-16.6 1.34-17.01 1.75-0.41 0.41 1.47 0.76 4.17 0.76 2.71 0.01 6.04 0.32 7.42 0.7l2.5 0.68c-4.71 1.33-4.59 1.42-1.5 1.47 1.92 0.03 4.69-0.49 6.14-1.16l2.64-1.2c-4.16-10.35-4.56-10.73-9.28-12.03-2.75-0.76-6.17-1.68-7.61-2.04-1.43-0.35-2.67-0.26-2.74 0.21zm-1444.15 73.93c-3.02 0.85-8.15 2.98-11.38 4.74-3.24 1.75-7.63 5.1-9.75 7.44-2.13 2.34-5.42 7.51-7.31 11.5-2.07 4.35-4.46 12.05-5.99 19.25-1.39 6.6-4.77 24.6-7.51 40-2.73 15.4-5.49 32.72-6.13 38.5-0.64 5.78-0.87 12.75-0.51 15.5 0.36 2.75 0.86 6.46 1.11 8.25 0.35 2.43 0.98 3.25 2.47 3.25 1.1 0 3.24-1.05 4.75-2.34 1.51-1.29 3.92-4.78 5.34-7.75 1.43-2.98 3.55-9.24 4.71-13.91 1.16-4.67 3.3-15.47 4.76-24 1.46-8.53 3.74-19.78 5.06-25 1.35-5.3 4.87-14.59 7.95-21 3.05-6.33 7.51-14.65 9.91-18.5 2.41-3.85 5.87-8.43 7.7-10.19 1.82-1.75 6.02-4.8 9.32-6.77 3.3-1.98 8.48-4.53 11.5-5.66 3.03-1.14 9.1-2.85 13.5-3.8 5.36-1.16 8-2.2 8-3.13 0-0.86-3.29-2.54-8.5-4.35-7.31-2.54-10.25-2.99-21-3.27-9.07-0.23-14.01 0.11-18 1.24zm1302.2 25.71c-3.92 3.97-8.61 8.09-10.41 9.16-3.12 1.83-3.21 1.84-1.79 0.07 1.35-1.67 1.34-1.77-0.08-0.94-0.87 0.51-4.56 4.08-8.21 7.93-3.65 3.85-6.65 7.56-6.67 8.25-0.02 0.69 0.63 1.03 1.46 0.75 0.83-0.28 2.29-0.49 3.25-0.47 0.96 0.01 1.41-0.21 1-0.5-0.41-0.29 2.85-3.23 7.25-6.53 4.4-3.3 8-6.45 8-7 0-0.55 0.79-0.98 1.75-0.96 1.12 0.03 3.65-2.94 7.03-8.25 2.91-4.56 5.12-8.39 4.92-8.51-0.2-0.12-3.58 3.03-7.5 7z"/>
		<path id="Path 13" class="s0" d="m914.97 570.86c-1.39 0.45-4.32 1.75-6.5 2.89-2.18 1.15-5.95 4.03-8.37 6.41-2.41 2.39-5.68 6.36-7.26 8.84-1.58 2.48-3.59 6.98-4.46 10-1.11 3.82-1.43 7.64-1.06 12.5 0.36 4.56 1.37 8.57 2.9 11.5 1.51 2.87 4.16 5.7 7.32 7.81 2.73 1.82 7.21 3.99 9.96 4.82 2.75 0.83 8.37 1.76 12.5 2.08 4.89 0.37 8.89 0.13 11.5-0.71 2.2-0.71 5.91-2.57 8.25-4.14 2.34-1.58 6.27-5.45 8.74-8.61 2.48-3.16 5.41-8.45 6.51-11.75 1.11-3.3 2.02-8.02 2.02-10.5 0-2.48-1.02-7.38-2.26-10.9-1.34-3.81-3.88-8.22-6.26-10.89-2.2-2.47-6.03-5.51-8.5-6.77-3.28-1.66-6.93-2.43-13.5-2.84-4.95-0.31-10.14-0.19-11.53 0.26z"/>
		<path id="Path 14" class="s1" d="m587.5 647.41c-2.75 1.33-7.36 4.94-10.25 8.01-3.55 3.77-5.6 6.96-6.31 9.83-0.59 2.34-0.76 5.6-0.38 7.25 0.38 1.65 1.71 5.03 2.96 7.5 1.26 2.48 3.34 5.47 4.63 6.66 1.29 1.18 4.15 3.06 6.35 4.18 2.2 1.11 7.6 2.53 12 3.16 4.4 0.64 9.8 0.83 12 0.43 2.2-0.39 5.58-1.37 7.5-2.18 1.92-0.8 5.41-2.99 7.75-4.85 2.92-2.33 4.78-4.89 5.93-8.15 1.45-4.13 1.51-5.6 0.43-11.25-0.68-3.58-2.33-8.41-3.67-10.75-1.61-2.8-4.58-5.63-8.69-8.28-6.18-3.98-6.35-4.02-15.75-4.01-8 0.01-10.29 0.4-14.5 2.45z"/>
		<path id="Path 15" class="s2" d="m720 515.27c-1.92 0.71-5.52 2.46-8 3.89-2.48 1.43-6.19 4.45-8.25 6.72-2.06 2.27-4.93 6.48-6.38 9.37-1.45 2.89-2.87 7.73-3.16 10.75-0.43 4.48-0.08 6.42 1.88 10.46 1.46 3.01 3.99 6.08 6.41 7.79 2.2 1.56 6.48 3.76 9.5 4.89 3.42 1.28 8.15 2.1 12.5 2.17 6.26 0.1 7.9-0.31 15.5-3.97 5.78-2.77 9.52-5.32 11.67-7.96 1.75-2.13 3.88-5.57 4.75-7.63 0.87-2.06 1.58-6.45 1.58-9.75 0-3.94-0.66-7.29-1.92-9.75-1.05-2.06-3.64-5.4-5.75-7.41-2.1-2.02-6.75-5.07-10.33-6.78-3.58-1.71-8.75-3.33-11.5-3.6-2.86-0.28-6.5 0.07-8.5 0.81z"/>
		<path id="Path 16" class="s5" d="m655.01 570.99c0 0.55-2.15 1.02-4.76 1.03-2.61 0.01-6.77 0.94-9.25 2.06-2.48 1.11-6.24 3.69-8.37 5.72-2.13 2.04-4.94 5.95-6.24 8.7-1.3 2.75-2.38 6.12-2.39 7.5-0.01 1.37 0.32 4.06 0.74 5.96 0.42 1.9 2.67 5.61 5.01 8.25q4.25 4.78 8 5.78c2.06 0.55 6 0.99 8.75 0.98 2.75-0.01 7.02-0.49 9.5-1.06 2.48-0.57 6.75-2.18 9.5-3.58 2.75-1.39 6.35-3.66 8-5.04 1.65-1.39 4.01-4.15 5.24-6.15 1.24-2 2.26-4.31 2.26-5.14 0.01-0.83-0.64-3.75-1.45-6.5-0.8-2.75-2.95-7.18-4.76-9.84-2.1-3.09-4.73-5.49-7.29-6.64-2.2-0.99-5.91-2.09-8.24-2.43-2.59-0.37-4.24-0.22-4.25 0.4z"/>
		<path id="Path 17" class="s6" d="m827 533.5c-2.49 0.75-6.73 3.32-9.5 5.76-3.23 2.84-5.84 6.32-7.36 9.82-1.94 4.44-2.3 6.71-2 12.58 0.31 6.16 0.78 7.68 3.4 11 1.68 2.11 5.5 5.08 8.5 6.6 3 1.52 7.71 3.05 10.46 3.41 3.85 0.49 6.71 0.09 12.44-1.76 5.2-1.69 8.75-3.61 11.82-6.41 2.41-2.2 5.07-5.8 5.91-8 0.96-2.52 1.37-6.03 1.1-9.5-0.23-3.02-1.18-7.08-2.12-9-0.96-1.96-4.39-5.47-7.81-8-3.35-2.48-7.72-5.28-9.72-6.22-1.99-0.95-5.2-1.71-7.12-1.68-1.92 0.02-5.52 0.65-8 1.4z"/>
		<path id="Path 18" class="s7" d="m583.25 722.25c0.18 0.88-2 1.4-7.3 1.75-6.35 0.42-8.47 1.06-13.35 4-3.2 1.92-8.06 5.98-10.81 9-2.74 3.02-6.3 8.2-7.9 11.5-2.16 4.44-3.07 8.08-3.52 14-0.36 4.75-0.15 9.72 0.51 12.25 0.62 2.34 2.58 5.88 4.37 7.88 1.79 1.99 4.6 4.31 6.25 5.15 1.65 0.84 5.25 2.13 8 2.86 2.75 0.74 7.48 1.34 10.5 1.34 3.02 0 7.75-0.6 10.5-1.33 2.75-0.73 6.58-2.06 8.5-2.96 1.92-0.89 6.36-4.23 9.86-7.41 4.74-4.3 7.29-7.68 10-13.23 3.11-6.37 3.63-8.39 3.56-14-0.07-4.68-0.8-8.12-2.56-12.05-1.36-3.02-4.25-7.48-6.42-9.91-2.29-2.56-6.45-5.59-9.94-7.25-3.3-1.56-7.01-2.84-8.25-2.84-1.27 0-2.14 0.55-2 1.25z"/>
		<path id="Path 19" class="s9" d="m760.5 609.02c-3.3 0.43-9.15 1.71-13 2.86-3.85 1.14-13.08 4.94-20.5 8.44-7.42 3.5-18.23 9.18-24 12.62-5.77 3.43-12.5 7.89-14.95 9.9-2.45 2.01-7.12 7.04-10.38 11.16-3.26 4.13-7.39 10.42-9.18 14-1.8 3.58-3.99 8.98-4.89 12-0.89 3.02-1.62 7.98-1.62 11 0 3.02 0.65 7.75 1.44 10.5 0.79 2.75 2.03 5.57 2.76 6.26 1.06 1.02 1.54 1.02 2.44 0 0.61-0.69 1.39-4.18 1.73-7.76 0.34-3.58 1.46-8.98 2.48-12 1.02-3.02 3.73-9.1 6.02-13.5 2.29-4.4 6.74-11.02 9.9-14.71 3.16-3.7 8.9-9.23 12.75-12.3 3.85-3.07 10.83-7.82 15.5-10.55 4.67-2.73 12.1-6.36 16.5-8.06 4.4-1.7 11.38-4.03 15.5-5.17 6.54-1.82 10.31-2.09 29.5-2.1 17.37-0.01 23.26 0.33 28 1.63 3.3 0.91 8.25 2.59 11 3.73 3.28 1.37 5.26 1.73 5.75 1.06 0.43-0.59-1.9-3.2-5.5-6.16-3.44-2.82-7.6-5.81-9.25-6.64-1.65-0.84-4.8-2.14-7-2.91-2.2-0.77-8.39-2.06-13.75-2.86-5.36-0.8-12.34-1.4-15.5-1.33-3.16 0.07-8.45 0.47-11.75 0.89z"/>
	</g>
</svg>